<?xml version="1.0" encoding="UTF-8" standalone="no" ?>
<!DOCTYPE svg PUBLIC "-//W3C//DTD SVG 1.1//EN" "http://www.w3.org/Graphics/SVG/1.1/DTD/svg11.dtd">
<svg xmlns="http://www.w3.org/2000/svg" xmlns:xlink="http://www.w3.org/1999/xlink" version="1.1" width="1080" height="1080" viewBox="0 0 1080 1080" xml:space="preserve">
<desc>Created with Fabric.js 5.2.4</desc>
<defs>
</defs>
<g transform="matrix(1 0 0 1 540 540)" id="d3de1fd3-a71f-44c4-b22f-216eff81dc1f"  >
<rect style="stroke: none; stroke-width: 1; stroke-dasharray: none; stroke-linecap: butt; stroke-dashoffset: 0; stroke-linejoin: miter; stroke-miterlimit: 4; fill: rgb(255,255,255); fill-rule: nonzero; opacity: 1; visibility: hidden;" vector-effect="non-scaling-stroke"  x="-540" y="-540" rx="0" ry="0" width="1080" height="1080" />
</g>
<g transform="matrix(1 0 0 1 540 540)" id="b70a1453-525b-4af6-96f4-5af4ad988b0f"  >
</g>
<g transform="matrix(0.52 0 0 0.52 559.65 510.08)"  >
<g style="" vector-effect="non-scaling-stroke"   >
		<g transform="matrix(1 0 0 1 0 -18.27)" id="outline"  >
<path style="stroke: rgb(0,0,0); stroke-width: 2; stroke-dasharray: none; stroke-linecap: round; stroke-dashoffset: 0; stroke-linejoin: round; stroke-miterlimit: 4; fill: rgb(112,172,252); fill-rule: evenodd; opacity: 1;" vector-effect="non-scaling-stroke"  transform=" translate(-998.65, -598.25)" d="M 173.6 1157 L 172.1 1157 L 170.7 1157 L 171.39999999999998 1153 L 174.99999999999997 1153 z M 162.79999999999998 1153 L 161.29999999999998 1157 L 157.7 1157 L 158.5 1153 L 159.9 1153 z M 179.29999999999998 1153 L 177.2 1153 L 176.5 1153 L 177.9 1153 L 180 1153 z M 187.99999999999997 1153 L 186.49999999999997 1153 L 184.39999999999998 1153 L 180.79999999999998 1153 L 182.89999999999998 1149 L 187.2 1149 L 188.7 1149 z M 154.79999999999995 1157 L 152 1157 L 146.9 1153 L 141.9 1153 L 134.70000000000002 1153 L 134.00000000000003 1149 L 141.90000000000003 1149 L 144.80000000000004 1149 L 148.40000000000003 1149 L 148.40000000000003 1149 L 151.20000000000005 1153 L 155.60000000000005 1153 z M 1656 1153 L 1651 1157 L 1652 1149 L 1664 1141 L 1667 1145 L 1670 1149 L 1662 1149 z M 118.90000000000009 1145 L 123.90000000000009 1149 L 126.8000000000001 1149 L 129.7000000000001 1149 L 128.9000000000001 1149 L 126.1000000000001 1153 L 118.90000000000009 1153 L 114.50000000000009 1149 L 108.10000000000008 1149 L 108.10000000000008 1141 L 112.40000000000008 1145 z M 233.3000000000001 1141 L 234.1000000000001 1141 L 232.6000000000001 1145 L 226.90000000000012 1145 L 223.30000000000013 1141 L 222.5000000000001 1145 L 221.80000000000013 1145 L 219.70000000000013 1149 L 216.80000000000013 1149 L 212.5000000000001 1153 L 207.40000000000012 1153 L 204.5000000000001 1149 L 201.7000000000001 1153 L 195.2000000000001 1153 L 193.0000000000001 1157 L 190.1000000000001 1153 L 196.6000000000001 1149 L 202.40000000000012 1145 L 205.30000000000013 1145 L 208.90000000000012 1149 L 211.70000000000013 1149 L 212.50000000000014 1145 L 212.50000000000014 1141 L 214.60000000000014 1141 L 216.80000000000013 1141 L 218.20000000000013 1141 L 221.80000000000013 1141 L 223.30000000000013 1141 L 224.0000000000001 1137 L 226.1000000000001 1137 L 229.0000000000001 1137 L 231.2000000000001 1141 z M 84.2900000000001 1141 L 85.0100000000001 1141 L 82.13000000000011 1141 L 79.25000000000011 1137 L 80.69000000000011 1133 z M 91.49000000000011 1133 L 90.77000000000011 1137 L 86.4500000000001 1133 L 88.6100000000001 1133 L 90.7700000000001 1133 z M 72.77000000000011 1129 L 69.17000000000012 1129 L 67.73000000000012 1125 L 71.33000000000011 1125 L 73.49000000000011 1125 L 73.49000000000011 1129 z M 44.650000000000105 1105 L 43.21000000000011 1109 L 41.05000000000011 1105 L 46.09000000000011 1101 L 47.53000000000011 1101 z M 766.1000000000001 1113 L 766.1000000000001 1121 L 769.7000000000002 1121 L 771.3000000000002 1125 L 777.7000000000002 1129 L 767.7000000000002 1137 L 761.7000000000002 1141 L 756.9000000000002 1137 L 748.9000000000002 1141 L 741.7000000000002 1157 L 732.9000000000002 1145 L 730.9000000000002 1125 L 727.3000000000002 1117 L 735.3000000000002 1109 L 732.5000000000002 1101 L 734.5000000000002 1097 L 762.5000000000002 1109 z M 44.65 1097 L 40.33 1097 L 35.31 1093 L 37.47 1093 L 41.769999999999996 1093 z M 344.9 1101 L 339.9 1105 L 337 1109 L 334.9 1105 L 333.4 1105 L 333.4 1109 L 330.5 1113 L 330.5 1113 L 327.7 1117 L 324.8 1113 L 326.90000000000003 1109 L 324.1 1101 L 328.40000000000003 1097 L 332.00000000000006 1101 L 336.30000000000007 1097 L 336.30000000000007 1089 L 341.30000000000007 1085 L 346.4000000000001 1085 L 346.4000000000001 1089 L 340.6000000000001 1089 L 340.6000000000001 1093 L 342.80000000000007 1097 z M 708.5 1085 L 697.7 1085 L 706.5 1081 z M 694.9 1077 L 689.3 1077 L 684.0999999999999 1069 L 688.4999999999999 1069 L 695.6999999999999 1069 z M 703.6999999999999 1061 L 709.3 1069 L 718.5 1069 L 728.9 1073 L 728.9 1077 L 725.3 1081 L 711.3 1085 L 709.3 1073 L 705.6999999999999 1073 L 700.4999999999999 1069 L 700.4999999999999 1065 z M 1037 1097 L 1040 1109 L 1036 1097 L 1038 1081 L 1038 1077 L 1041 1069 L 1044 1065 L 1047 1057 L 1050 1057 L 1043 1069 L 1038 1081 z M 688.5 1053 L 689.7 1057 L 699.3000000000001 1057 L 693.3000000000001 1061 L 674.1 1061 L 677.7 1057 L 686.9000000000001 1057 z M 242.7 1057 L 237.7 1057 L 230.5 1049 L 240.5 1049 L 242.7 1049 z M 661.7 1049 L 660.9000000000001 1053 L 653.7 1053 L 648.1 1053 L 640.9 1053 L 635.6999999999999 1041 L 642.9 1037 L 647.3 1033 L 653.3 1041 L 653.6999999999999 1045 L 656.9 1049 z M 197.30000000000007 1037 L 193.70000000000007 1041 L 190.10000000000008 1037 L 191.60000000000008 1033 L 195.20000000000007 1037 z M 564.5 1025 L 559.7 1029 L 556.5 1029 L 557.3 1025 L 562.5 1021 L 565.3 1021 z M 591.3 1025 L 581.3 1025 L 574.5 1021 L 575.3 1017 L 583.3 1013 L 590.5 1013 L 595.7 1017 z M 1136 996.7 L 1123 1005 L 1133 996.7 z M 211.70000000000005 988.7 L 216.80000000000004 992.7 L 221.80000000000004 992.7 L 223.20000000000005 996.7 L 230.40000000000003 1001 L 221.80000000000004 1005 L 218.20000000000005 996.7 L 211 996.7 Z M 1251 980.7 L 1246 984.3000000000001 L 1238 980.7 L 1244 977.5 z M 319.70000000000005 894.3000000000001 L 320.50000000000006 899.9000000000001 L 324.1000000000001 895.5000000000001 L 328.4000000000001 900.7000000000002 L 334.9000000000001 898.3000000000002 L 337.7000000000001 899.9000000000002 L 338.5000000000001 902.7000000000002 L 341.3000000000001 905.5000000000001 L 352.90000000000015 902.7000000000002 L 362.20000000000016 907.1000000000001 L 372.3000000000002 906.3000000000002 L 376.6000000000002 909.1000000000001 L 384.50000000000017 904.3000000000002 L 398.90000000000015 909.9000000000002 L 426.50000000000017 1045.0000000000002 L 434.90000000000015 1049.0000000000002 L 439.3000000000001 1045.0000000000002 L 440.10000000000014 1049.0000000000002 L 454.5000000000001 1057.0000000000002 L 455.3000000000001 1061.0000000000002 L 460.90000000000015 1057.0000000000002 L 462.50000000000017 1049.0000000000002 L 467.3000000000002 1045.0000000000002 L 471.70000000000016 1045.0000000000002 L 473.3000000000002 1049.0000000000002 L 473.3000000000002 1053.0000000000002 L 487.70000000000016 1061.0000000000002 L 503.3000000000002 1077.0000000000002 L 509.3000000000002 1081.0000000000002 L 519.3000000000002 1085.0000000000002 L 528.5000000000002 1085.0000000000002 L 527.7000000000003 1089.0000000000002 L 532.1000000000003 1097.0000000000002 L 529.3000000000003 1105.0000000000002 L 524.9000000000003 1101.0000000000002 L 520.5000000000003 1105.0000000000002 L 515.7000000000004 1097.0000000000002 L 512.9000000000004 1097.0000000000002 L 514.1000000000005 1101.0000000000002 L 518.5000000000005 1109.0000000000002 L 514.1000000000005 1113.0000000000002 L 512.1000000000005 1113.0000000000002 L 500.50000000000045 1105.0000000000002 L 500.50000000000045 1097.0000000000002 L 496.90000000000043 1093.0000000000002 L 496.1000000000004 1101.0000000000002 L 491.70000000000044 1101.0000000000002 L 491.70000000000044 1093.0000000000002 L 489.70000000000044 1089.0000000000002 L 488.90000000000043 1093.0000000000002 L 484.1000000000004 1093.0000000000002 L 468.1000000000004 1077.0000000000002 L 465.3000000000004 1069.0000000000002 L 436.5000000000004 1057.0000000000002 L 437.7000000000004 1053.0000000000002 L 438.5000000000004 1053.0000000000002 L 434.9000000000004 1053.0000000000002 L 432.9000000000004 1057.0000000000002 L 423.30000000000035 1053.0000000000002 L 412.10000000000036 1053.0000000000002 L 401.7000000000004 1061.0000000000002 L 403.3000000000004 1053.0000000000002 L 390.3000000000004 1053.0000000000002 L 385.3000000000004 1045.0000000000002 L 375.90000000000043 1045.0000000000002 L 370.90000000000043 1045.0000000000002 L 372.3000000000004 1049.0000000000002 L 377.3000000000004 1053.0000000000002 L 375.90000000000043 1057.0000000000002 L 372.3000000000004 1061.0000000000002 L 365.8000000000004 1061.0000000000002 L 357.2000000000004 1069.0000000000002 L 349.3000000000004 1073.0000000000002 L 344.90000000000043 1073.0000000000002 L 352.90000000000043 1065.0000000000002 L 347.8000000000004 1065.0000000000002 L 344.90000000000043 1065.0000000000002 L 349.3000000000004 1057.0000000000002 L 349.3000000000004 1049.0000000000002 L 355.7000000000004 1045.0000000000002 L 358.60000000000036 1049.0000000000002 L 363.7000000000004 1045.0000000000002 L 357.2000000000004 1041.0000000000002 L 352.9000000000004 1041.0000000000002 L 346.4000000000004 1049.0000000000002 L 341.30000000000035 1057.0000000000002 L 339.20000000000033 1057.0000000000002 L 339.20000000000033 1061.0000000000002 L 336.30000000000035 1065.0000000000002 L 335.60000000000036 1065.0000000000002 L 333.4000000000004 1069.0000000000002 L 330.5000000000004 1069.0000000000002 L 329.8000000000004 1077.0000000000002 L 334.1000000000004 1077.0000000000002 L 330.5000000000004 1085.0000000000002 L 327.7000000000004 1089.0000000000002 L 321.9000000000004 1093.0000000000002 L 319.7000000000004 1097.0000000000002 L 316.9000000000004 1097.0000000000002 L 314.0000000000004 1101.0000000000002 L 311.1000000000004 1101.0000000000002 L 309.70000000000044 1105.0000000000002 L 305.30000000000047 1109.0000000000002 L 301.70000000000044 1109.0000000000002 L 300.30000000000047 1113.0000000000002 L 295.30000000000047 1113.0000000000002 L 293.1000000000005 1117.0000000000002 L 289.50000000000045 1121.0000000000002 L 285.20000000000044 1125.0000000000002 L 279.40000000000043 1125.0000000000002 L 275.8000000000004 1125.0000000000002 L 275.1000000000004 1125.0000000000002 L 270.1000000000004 1129.0000000000002 L 267.90000000000043 1125.0000000000002 L 265.70000000000044 1125.0000000000002 L 263.6000000000004 1129.0000000000002 L 260.70000000000044 1133.0000000000002 L 256.40000000000043 1133.0000000000002 L 252.00000000000043 1133.0000000000002 L 248.40000000000043 1137.0000000000002 L 242.70000000000044 1137.0000000000002 L 234.00000000000045 1141.0000000000002 L 233.30000000000047 1137.0000000000002 L 237.60000000000048 1129.0000000000002 L 248.4000000000005 1129.0000000000002 L 253.50000000000048 1129.0000000000002 L 262.80000000000047 1121.0000000000002 L 270.00000000000045 1121.0000000000002 L 272.20000000000044 1121.0000000000002 L 274.40000000000043 1117.0000000000002 L 280.1000000000004 1113.0000000000002 L 288.8000000000004 1109.0000000000002 L 291.6000000000004 1109.0000000000002 L 294.5000000000004 1101.0000000000002 L 299.6000000000004 1097.0000000000002 L 300.3000000000004 1097.0000000000002 L 302.5000000000004 1085.0000000000002 L 306.8000000000004 1077.0000000000002 L 297.40000000000043 1081.0000000000002 L 294.50000000000045 1077.0000000000002 L 291.70000000000044 1085.0000000000002 L 287.30000000000047 1077.0000000000002 L 283.70000000000044 1077.0000000000002 L 280.90000000000043 1073.0000000000002 L 275.8000000000004 1077.0000000000002 L 272.2000000000004 1077.0000000000002 L 269.3000000000004 1081.0000000000002 L 266.5000000000004 1077.0000000000002 L 268.6000000000004 1077.0000000000002 L 267.90000000000043 1069.0000000000002 L 271.50000000000045 1065.0000000000002 L 267.90000000000043 1057.0000000000002 L 261.40000000000043 1061.0000000000002 L 254.90000000000043 1057.0000000000002 L 248.40000000000043 1049.0000000000002 L 247.00000000000043 1045.0000000000002 L 249.20000000000041 1041.0000000000002 L 247.70000000000041 1041.0000000000002 L 245.60000000000042 1037.0000000000002 L 244.8000000000004 1033.0000000000002 L 242.70000000000041 1029.0000000000002 L 245.60000000000042 1025.0000000000002 L 247.70000000000041 1021.0000000000002 L 254.20000000000041 1017.0000000000002 L 257.1000000000004 1009.0000000000002 L 260.0000000000004 1009.0000000000002 L 265.0000000000004 1009.0000000000002 L 266.5000000000004 1013.0000000000002 L 272.2000000000004 1009.0000000000002 L 279.4000000000004 1005.0000000000002 L 284.5000000000004 1005.0000000000002 L 283.7000000000004 996.7000000000003 L 280.10000000000036 992.7000000000003 L 285.2000000000004 988.7000000000003 L 284.4000000000004 984.7000000000003 L 280.10000000000036 985.5000000000002 L 275.80000000000035 988.3000000000002 L 272.20000000000033 992.7000000000002 L 270.80000000000035 988.7000000000002 L 265.70000000000033 988.3000000000002 L 257.80000000000035 988.3000000000002 L 249.90000000000035 984.3000000000002 L 248.40000000000035 977.5000000000002 L 252.00000000000034 973.9000000000002 L 242.00000000000034 968.3000000000002 L 260.70000000000033 959.5000000000002 L 269.30000000000035 958.3000000000002 L 269.30000000000035 964.7000000000002 L 280.80000000000035 969.1000000000001 L 284.4000000000004 963.9000000000001 L 283.0000000000004 957.5000000000001 L 285.9000000000004 954.7000000000002 L 272.2000000000004 951.1000000000001 L 270.8000000000004 942.3000000000002 L 258.5000000000004 930.3000000000002 L 261.4000000000004 927.9000000000002 L 262.10000000000036 922.3000000000002 L 275.10000000000036 922.3000000000002 L 286.60000000000036 905.5000000000002 L 292.4000000000004 905.1000000000003 L 302.4000000000004 898.3000000000003 L 308.2000000000004 898.3000000000003 L 316.10000000000036 891.1000000000003 z M 286.6 738.7 L 293.1 749.5 L 288.8 747.1 z M 257.8 685.9000000000001 L 257.8 690.3000000000001 L 252.8 688.3000000000001 L 252.10000000000002 684.7 z M 248.5 688.7 L 243.4 689.5 L 240.5 683.9 L 246.3 684.6999999999999 z M 1798 661.5 L 1799 663.5 L 1796 663.5 L 1792 666.7 L 1794 665.1 L 1796 662.3000000000001 z M 1794 428.3 L 1790 431.1 L 1791 428.3 L 1791 426.7 L 1791 425.5 L 1794 423.9 z M 1900 365.5 L 1888 369.1 L 1890 368.3 L 1894 361.1 z M 1915 366.3 L 1912 367.1 L 1908 366.3 L 1912 364.7 L 1913 361.09999999999997 L 1916 364.29999999999995 z M 1464 250.3 L 1455 253.9 L 1452 252.70000000000002 L 1458 248.3 L 1460 245.9 z M 1294 185.5 L 1290 189.1 L 1286 187.9 L 1288 184.70000000000002 L 1296 180.70000000000002 L 1306 173.50000000000003 L 1306 177.10000000000002 L 1303 180.70000000000002 z M 333.4 81.9 L 333.4 85.5 L 326.9 80.3 L 328.4 75.5 L 324.79999999999995 71.1 L 329.79999999999995 69.5 L 329.09999999999997 79.5 z M 321.9 56.7 L 317.59999999999997 56.7 L 316.79999999999995 52.300000000000004 L 320.49999999999994 52.300000000000004 z M 330.5 53.1 L 327.6 55.1 L 322.6 52.300000000000004 L 326.20000000000005 50.300000000000004 z M 410.5 60.300000000000004 L 442.9 68.30000000000001 L 460.09999999999997 72.30000000000001 L 481.7 77.50000000000001 L 492.5 80.30000000000001 L 520.5 86.30000000000001 L 557.3 93.9 L 576.0999999999999 97.5 L 605.6999999999999 103.5 L 628.4999999999999 107.1 L 654.4999999999999 111.5 L 669.6999999999999 114.3 L 704.9 119.1 L 740.9 124.3 L 770.5 127.89999999999999 L 801.3 131.5 L 830.9 134.3 L 859.6999999999999 136.70000000000002 L 891.3 139.50000000000003 L 918.0999999999999 141.10000000000002 L 932.4999999999999 142.3 L 970.4999999999999 143.9 L 989.2999999999998 144.70000000000002 L 1003.9999999999999 145.10000000000002 L 1034 145.90000000000003 L 1055 146.70000000000005 L 1079 146.70000000000005 L 1110 146.70000000000005 L 1115 146.70000000000005 L 1114 129.90000000000003 L 1120 130.70000000000005 L 1123 133.50000000000006 L 1128 151.10000000000005 L 1128 155.50000000000006 L 1130 158.30000000000007 L 1136 159.10000000000008 L 1140 161.10000000000008 L 1152 161.9000000000001 L 1154 166.3000000000001 L 1163 164.7000000000001 L 1163 163.1000000000001 L 1171 160.3000000000001 L 1174 161.1000000000001 L 1176 161.1000000000001 L 1184 164.7000000000001 L 1187 169.1000000000001 L 1191 168.3000000000001 L 1195 177.50000000000009 L 1198 177.10000000000008 L 1198 172.70000000000007 L 1201 171.10000000000008 L 1206 173.50000000000009 L 1205 175.50000000000009 L 1212 177.50000000000009 L 1215 181.10000000000008 L 1223 184.30000000000007 L 1228 181.90000000000006 L 1234 177.50000000000006 L 1238 174.70000000000005 L 1242 180.70000000000005 L 1253 180.70000000000005 L 1260 179.10000000000005 L 1264 179.90000000000006 L 1267 184.30000000000007 L 1272 181.90000000000006 L 1275 183.50000000000006 L 1271 187.90000000000006 L 1266 190.70000000000007 L 1249 197.10000000000008 L 1244 200.70000000000007 L 1236 207.90000000000006 L 1224 223.10000000000005 L 1220 225.10000000000005 L 1214 231.50000000000006 L 1206 238.70000000000005 L 1208 241.90000000000003 L 1215 242.30000000000004 L 1222 239.50000000000003 L 1235 233.90000000000003 L 1242 229.50000000000003 L 1245 232.30000000000004 L 1241 238.30000000000004 L 1241 245.50000000000003 L 1247 241.90000000000003 L 1252 245.50000000000003 L 1256 245.50000000000003 L 1267 240.30000000000004 L 1271 235.90000000000003 L 1274 233.90000000000003 L 1284 231.50000000000003 L 1290 228.70000000000002 L 1292 225.10000000000002 L 1298 223.10000000000002 L 1300 219.50000000000003 L 1310 210.70000000000002 L 1312 207.10000000000002 L 1319 202.70000000000002 L 1330 201.50000000000003 L 1330 205.10000000000002 L 1324 209.50000000000003 L 1318 213.50000000000003 L 1313 225.90000000000003 L 1314 231.50000000000003 L 1319 225.10000000000002 L 1325 225.90000000000003 L 1329 225.90000000000003 L 1336 227.90000000000003 L 1342 235.90000000000003 L 1348 241.90000000000003 L 1354 241.10000000000002 L 1358 239.50000000000003 L 1363 242.30000000000004 L 1369 243.10000000000005 L 1371 239.50000000000006 L 1382 231.10000000000005 L 1390 228.70000000000005 L 1401 227.90000000000003 L 1408 224.30000000000004 L 1416 223.10000000000005 L 1415 233.90000000000006 L 1416 235.10000000000005 L 1424 235.10000000000005 L 1428 233.90000000000006 L 1431 235.90000000000006 L 1434 232.30000000000007 L 1443 231.10000000000008 L 1442 234.70000000000007 L 1444 244.70000000000007 L 1452 253.10000000000008 L 1446 253.10000000000008 L 1442 253.10000000000008 L 1436 255.50000000000009 L 1436 253.10000000000008 L 1429 251.9000000000001 L 1425 260.30000000000007 L 1419 255.50000000000006 L 1409 252.70000000000005 L 1403 253.10000000000005 L 1400 258.30000000000007 L 1393 259.9000000000001 L 1392 261.9000000000001 L 1384 261.1000000000001 L 1380 263.9000000000001 L 1379 269.1000000000001 L 1377 270.7000000000001 L 1374 271.1000000000001 L 1372 277.1000000000001 L 1370 275.50000000000006 L 1374 267.1000000000001 L 1367 267.1000000000001 L 1365 273.50000000000006 L 1362 275.50000000000006 L 1359 274.30000000000007 L 1354 281.9000000000001 L 1349 294.30000000000007 L 1345 299.9000000000001 L 1345 302.30000000000007 L 1344 307.1000000000001 L 1341 307.9000000000001 L 1337 314.30000000000007 L 1335 321.1000000000001 L 1334 326.7000000000001 L 1337 327.5000000000001 L 1342 321.5000000000001 L 1342 320.3000000000001 L 1346 313.10000000000014 L 1351 310.70000000000016 L 1356 297.90000000000015 L 1362 295.90000000000015 L 1362 300.70000000000016 L 1360 302.3000000000002 L 1358 310.70000000000016 L 1354 314.3000000000002 L 1354 319.50000000000017 L 1351 326.70000000000016 L 1349 335.50000000000017 L 1351 341.1000000000002 L 1347 344.7000000000002 L 1346 353.9000000000002 L 1347 362.7000000000002 L 1345 369.1000000000002 L 1342 382.3000000000002 L 1343 385.1000000000002 L 1346 399.50000000000017 L 1349 402.3000000000002 L 1348 407.50000000000017 L 1349 414.70000000000016 L 1348 423.10000000000014 L 1351 429.10000000000014 L 1354 431.90000000000015 L 1357 441.90000000000015 L 1360 447.50000000000017 L 1365 450.70000000000016 L 1370 450.70000000000016 L 1379 445.50000000000017 L 1382 443.50000000000017 L 1388 436.70000000000016 L 1392 426.70000000000016 L 1395 421.10000000000014 L 1397 413.10000000000014 L 1398 397.90000000000015 L 1396 388.70000000000016 L 1394 382.70000000000016 L 1389 375.10000000000014 L 1386 368.3000000000001 L 1383 362.7000000000001 L 1386 353.5000000000001 L 1382 343.10000000000014 L 1385 338.3000000000001 L 1388 330.3000000000001 L 1389 323.10000000000014 L 1388 315.10000000000014 L 1392 311.5000000000001 L 1392 305.9000000000001 L 1396 303.1000000000001 L 1400 303.1000000000001 L 1401 298.7000000000001 L 1406 297.1000000000001 L 1406 310.30000000000007 L 1409 310.70000000000005 L 1411 305.90000000000003 L 1413 303.1 L 1413 295.1 L 1411 290.70000000000005 L 1411 287.90000000000003 L 1416 283.50000000000006 L 1419 282.70000000000005 L 1418 274.30000000000007 L 1422 267.50000000000006 L 1428 263.90000000000003 L 1437 268.3 L 1441 267.5 L 1444 268.3 L 1448 273.5 L 1454 273.5 L 1457 275.5 L 1470 279.9 L 1472 283.5 L 1474 286.3 L 1470 291.5 L 1472 295.9 L 1475 297.9 L 1478 303.5 L 1478 313.1 L 1478 320.3 L 1473 323.90000000000003 L 1472 328.70000000000005 L 1470 336.70000000000005 L 1464 337.50000000000006 L 1463 341.1000000000001 L 1462 347.50000000000006 L 1464 350.30000000000007 L 1471 353.50000000000006 L 1478 346.70000000000005 L 1479 341.90000000000003 L 1482 335.50000000000006 L 1488 333.1000000000001 L 1492 330.30000000000007 L 1498 332.30000000000007 L 1503 339.1000000000001 L 1504 344.7000000000001 L 1508 355.5000000000001 L 1511 366.3000000000001 L 1514 374.3000000000001 L 1514 376.3000000000001 L 1514 383.5000000000001 L 1514 390.7000000000001 L 1509 393.1000000000001 L 1507 387.9000000000001 L 1504 390.7000000000001 L 1504 398.7000000000001 L 1502 403.1000000000001 L 1498 405.1000000000001 L 1497 408.7000000000001 L 1498 415.1000000000001 L 1496 418.30000000000007 L 1489 429.1000000000001 L 1489 431.9000000000001 L 1499 435.5000000000001 L 1506 439.10000000000014 L 1504 441.90000000000015 L 1508 442.70000000000016 L 1515 440.3000000000002 L 1522 442.70000000000016 L 1526 440.3000000000002 L 1529 439.9000000000002 L 1536 434.7000000000002 L 1538 435.5000000000002 L 1545 434.7000000000002 L 1552 427.5000000000002 L 1558 421.10000000000025 L 1566 415.90000000000026 L 1580 407.90000000000026 L 1586 404.30000000000024 L 1602 391.5000000000002 L 1610 383.5000000000002 L 1614 379.10000000000025 L 1619 375.5000000000002 L 1621 369.9000000000002 L 1626 365.5000000000002 L 1625 361.9000000000002 L 1619 353.5000000000002 L 1616 346.30000000000024 L 1629 339.10000000000025 L 1634 337.5000000000002 L 1648 335.5000000000002 L 1655 334.7000000000002 L 1662 337.5000000000002 L 1668 335.5000000000002 L 1674 333.10000000000025 L 1680 332.30000000000024 L 1687 328.30000000000024 L 1689 324.7000000000002 L 1695 318.7000000000002 L 1698 317.9000000000002 L 1701 315.1000000000002 L 1700 310.7000000000002 L 1698 305.1000000000002 L 1700 299.50000000000017 L 1695 297.90000000000015 L 1691 293.50000000000017 L 1692 289.1000000000002 L 1696 285.1000000000002 L 1704 277.9000000000002 L 1706 272.7000000000002 L 1716 256.30000000000024 L 1724 247.50000000000023 L 1729 245.50000000000023 L 1732 245.50000000000023 L 1752 241.10000000000022 L 1773 235.10000000000022 L 1777 233.90000000000023 L 1796 229.50000000000023 L 1815 224.30000000000024 L 1828 221.50000000000023 L 1828 211.50000000000023 L 1830 207.90000000000023 L 1836 209.50000000000023 L 1836 206.30000000000024 L 1840 203.50000000000023 L 1844 205.10000000000022 L 1843 199.90000000000023 L 1848 198.70000000000024 L 1845 195.50000000000026 L 1845 191.90000000000026 L 1848 187.10000000000025 L 1851 183.50000000000026 L 1850 180.70000000000024 L 1853 176.30000000000024 L 1854 173.50000000000023 L 1850 170.30000000000024 L 1851 164.70000000000024 L 1849 163.10000000000025 L 1850 156.70000000000024 L 1854 151.90000000000023 L 1853 145.10000000000022 L 1852 140.3000000000002 L 1865 101.9000000000002 L 1871 102.7000000000002 L 1872 109.9000000000002 L 1877 110.7000000000002 L 1885 104.3000000000002 L 1891 102.7000000000002 L 1891 99.10000000000021 L 1894 98.30000000000021 L 1904 102.70000000000022 L 1910 106.30000000000021 L 1924 152.3000000000002 L 1927 163.10000000000022 L 1933 164.70000000000022 L 1939 163.9000000000002 L 1938 169.1000000000002 L 1941 171.9000000000002 L 1941 177.1000000000002 L 1947 181.9000000000002 L 1948 179.1000000000002 L 1952 179.1000000000002 L 1962 191.5000000000002 L 1958 199.9000000000002 L 1954 200.70000000000022 L 1952 204.3000000000002 L 1948 204.3000000000002 L 1948 208.70000000000022 L 1940 211.50000000000023 L 1937 214.30000000000024 L 1938 217.10000000000025 L 1936 220.70000000000024 L 1933 215.90000000000023 L 1928 217.10000000000022 L 1933 221.50000000000023 L 1932 224.30000000000024 L 1926 225.90000000000023 L 1926 219.50000000000023 L 1920 223.10000000000022 L 1921 227.90000000000023 L 1916 227.50000000000023 L 1914 228.70000000000022 L 1912 219.50000000000023 L 1912 222.30000000000024 L 1908 225.10000000000025 L 1910 229.50000000000026 L 1909 233.10000000000025 L 1909 240.30000000000024 L 1908 247.50000000000023 L 1902 245.90000000000023 L 1900 247.50000000000023 L 1900 253.90000000000023 L 1894 254.70000000000024 L 1893 259.90000000000026 L 1889 259.90000000000026 L 1884 262.7000000000003 L 1881 261.90000000000026 L 1879 267.10000000000025 L 1882 271.10000000000025 L 1878 273.5000000000002 L 1879 277.9000000000002 L 1875 282.7000000000002 L 1874 295.9000000000002 L 1873 296.3000000000002 L 1872 305.1000000000002 L 1875 312.3000000000002 L 1880 315.1000000000002 L 1874 318.7000000000002 L 1872 324.7000000000002 L 1871 330.30000000000024 L 1872 330.30000000000024 L 1876 331.10000000000025 L 1878 330.30000000000024 L 1879 331.10000000000025 L 1886 335.90000000000026 L 1885 341.10000000000025 L 1891 342.7000000000003 L 1892 346.7000000000003 L 1898 349.10000000000025 L 1902 346.7000000000003 L 1908 343.90000000000026 L 1912 347.5000000000003 L 1897 354.7000000000003 L 1897 357.5000000000003 L 1891 359.90000000000026 L 1890 351.90000000000026 L 1884 357.10000000000025 L 1883 361.10000000000025 L 1878 364.7000000000003 L 1871 365.5000000000003 L 1874 358.3000000000003 L 1872 357.1000000000003 L 1868 357.1000000000003 L 1866 356.3000000000003 L 1867 360.7000000000003 L 1868 368.3000000000003 L 1868 373.5000000000003 L 1856 378.7000000000003 L 1853 379.10000000000025 L 1842 384.40000000000026 L 1841 382.90000000000026 L 1836 386.30000000000024 L 1824 388.7000000000002 L 1819 395.2000000000002 L 1816 395.9000000000002 L 1810 402.4000000000002 L 1803 406.7000000000002 L 1801 411.5000000000002 L 1801 415.30000000000024 L 1803 415.90000000000026 L 1803 411.7000000000003 L 1807 408.90000000000026 L 1811 410.30000000000024 L 1812 405.90000000000026 L 1818 406.7000000000003 L 1823 403.10000000000025 L 1836 398.7000000000003 L 1842 392.3000000000003 L 1847 393.5000000000003 L 1850 392.3000000000003 L 1853 394.3000000000003 L 1856 389.9000000000003 L 1859 389.9000000000003 L 1843 403.50000000000034 L 1821 418.20000000000033 L 1816 420.70000000000033 L 1812 422.30000000000035 L 1805 423.9000000000004 L 1800 425.9000000000004 L 1796 424.7000000000004 L 1796 421.10000000000036 L 1801 415.30000000000035 L 1795 420.60000000000036 L 1795 421.10000000000036 L 1791 424.7000000000004 L 1791 425.5000000000004 L 1791 426.7000000000004 L 1789 431.9000000000004 L 1792 433.10000000000036 L 1800 433.10000000000036 L 1801 437.50000000000034 L 1801 446.30000000000035 L 1802 461.50000000000034 L 1800 471.50000000000034 L 1797 473.50000000000034 L 1798 476.30000000000035 L 1796 480.70000000000033 L 1792 484.30000000000035 L 1789 490.30000000000035 L 1787 498.70000000000033 L 1784 503.1000000000003 L 1782 499.5000000000003 L 1783 495.90000000000026 L 1782 492.30000000000024 L 1773 491.5000000000002 L 1764 486.7000000000002 L 1759 484.30000000000024 L 1757 478.7000000000002 L 1757 477.9000000000002 L 1760 469.1000000000002 L 1760 469.1000000000002 L 1758 469.9000000000002 L 1756 479.5000000000002 L 1757 484.30000000000024 L 1760 488.7000000000002 L 1764 490.30000000000024 L 1766 495.10000000000025 L 1767 501.10000000000025 L 1771 504.7000000000003 L 1776 509.5000000000003 L 1780 510.3000000000003 L 1784 523.9000000000003 L 1783 539.9000000000003 L 1782 543.5000000000003 L 1780 549.9000000000003 L 1778 549.9000000000003 L 1774 557.9000000000003 L 1774 565.1000000000004 L 1773 569.9000000000003 L 1771 582.3000000000003 L 1766 586.7000000000003 L 1764 581.5000000000002 L 1764 567.9000000000002 L 1766 559.9000000000002 L 1768 557.1000000000003 L 1769 548.3000000000003 L 1761 549.1000000000003 L 1764 545.5000000000002 L 1760 540.7000000000003 L 1761 537.5000000000002 L 1758 537.5000000000002 L 1758 532.7000000000003 L 1754 539.9000000000003 L 1748 535.5000000000003 L 1746 536.3000000000003 L 1742 531.9000000000003 L 1745 529.1000000000004 L 1742 525.5000000000003 L 1746 523.9000000000003 L 1751 525.5000000000003 L 1743 521.1000000000004 L 1740 520.3000000000004 L 1740 516.7000000000004 L 1743 515.5000000000003 L 1742 511.10000000000036 L 1742 504.7000000000004 L 1738 503.10000000000036 L 1740 495.10000000000036 L 1741 492.30000000000035 L 1745 491.50000000000034 L 1744 483.50000000000034 L 1741 485.10000000000036 L 1741 489.50000000000034 L 1736 495.9000000000003 L 1733 493.1000000000003 L 1734 495.1000000000003 L 1732 501.5000000000003 L 1729 501.1000000000003 L 1729 502.3000000000003 L 1733 504.7000000000003 L 1733 511.10000000000025 L 1734 513.1000000000003 L 1732 521.9000000000002 L 1734 523.1000000000003 L 1736 530.3000000000003 L 1741 536.3000000000003 L 1739 539.1000000000003 L 1742 539.1000000000003 L 1745 546.3000000000003 L 1740 547.9000000000003 L 1736 544.7000000000003 L 1729 544.3000000000003 L 1727 540.7000000000003 L 1725 543.5000000000002 L 1720 537.5000000000002 L 1714 542.7000000000003 L 1712 537.5000000000002 L 1714 530.3000000000002 L 1711 529.9000000000002 L 1710 537.1000000000003 L 1712 543.5000000000002 L 1714 544.3000000000002 L 1721 540.7000000000002 L 1722 544.7000000000002 L 1724 547.1000000000001 L 1728 548.3000000000002 L 1736 547.9000000000002 L 1739 551.9000000000002 L 1750 555.5000000000002 L 1749 559.1000000000003 L 1749 565.1000000000003 L 1748 567.9000000000002 L 1742 567.9000000000002 L 1738 562.3000000000002 L 1736 562.3000000000002 L 1727 555.5000000000002 L 1737 564.3000000000002 L 1739 565.1000000000001 L 1743 569.9000000000001 L 1750 572.3000000000001 L 1754 574.3000000000001 L 1753 580.3000000000001 L 1749 577.1 L 1748 579.5 L 1752 583.1 L 1748 585.1 L 1751 587.9 L 1756 589.5 L 1756 593.9 L 1753 595.1 L 1745 591.1 L 1745 589.5 L 1740 589.5 L 1735 587.5 L 1733 588.7 L 1742 591.1 L 1743 593.9 L 1750 597.5 L 1750 598.7 L 1754 598.7 L 1756 598.7 L 1757 595.1 L 1761 595.9 L 1767 595.1 L 1775 610.3000000000001 L 1781 622.7 L 1780 623.5 L 1777 615.5 L 1774 613.1 L 1774 623.5 L 1774 626.3 L 1768 623.5 L 1766 623.5 L 1771 626.3 L 1768 630.6999999999999 L 1765 628.3 L 1767 630.6999999999999 L 1760 634.3 L 1756 637.9 L 1752 637.1 L 1750 633.5 L 1750 627.1 L 1749 629.1 L 1749 633.5 L 1752 641.5 L 1757 640.7 L 1762 637.9000000000001 L 1764 639.9000000000001 L 1770 635.5000000000001 L 1774 634.7000000000002 L 1776 637.9000000000002 L 1775 641.5000000000002 L 1777 648.7000000000003 L 1778 648.7000000000003 L 1777 639.1000000000003 L 1780 634.3000000000003 L 1785 637.9000000000003 L 1788 645.1000000000004 L 1787 650.7000000000004 L 1783 649.9000000000004 L 1778 661.5000000000005 L 1772 664.3000000000004 L 1767 665.1000000000004 L 1761 661.5000000000003 L 1764 656.3000000000003 L 1758 659.5000000000003 L 1761 664.3000000000003 L 1760 666.7000000000003 L 1766 669.5000000000002 L 1764 676.7000000000003 L 1760 681.5000000000002 L 1757 683.9000000000002 L 1752 681.1000000000003 L 1752 684.7000000000003 L 1759 685.9000000000003 L 1762 683.1000000000004 L 1768 680.3000000000004 L 1774 684.7000000000004 L 1771 689.5000000000003 L 1766 693.1000000000004 L 1756 694.7000000000004 L 1749 698.3000000000004 L 1743 705.5000000000005 L 1738 711.1000000000005 L 1732 718.3000000000005 L 1729 724.7000000000005 L 1727 735.5000000000005 L 1725 737.9000000000004 L 1721 737.9000000000004 L 1712 739.1000000000005 L 1706 742.7000000000005 L 1698 749.5000000000005 L 1692 757.1000000000005 L 1690 761.5000000000005 L 1688 769.5000000000005 L 1688 775.9000000000004 L 1686 778.7000000000004 L 1684 783.9000000000004 L 1676 784.7000000000004 L 1677 789.5000000000003 L 1673 794.7000000000004 L 1668 798.3000000000004 L 1668 801.1000000000004 L 1664 804.7000000000004 L 1660 806.3000000000004 L 1656 809.9000000000004 L 1653 811.9000000000004 L 1648 812.7000000000004 L 1650 816.3000000000004 L 1650 819.9000000000004 L 1643 825.5000000000005 L 1641 829.1000000000005 L 1637 832.3000000000005 L 1637 834.3000000000005 L 1636 839.9000000000005 L 1630 848.7000000000005 L 1627 849.5000000000005 L 1631 853.1000000000005 L 1629 855.9000000000004 L 1630 857.9000000000004 L 1626 865.1000000000005 L 1627 868.3000000000005 L 1628 871.1000000000005 L 1624 875.9000000000004 L 1624 881.1000000000005 L 1626 885.5000000000005 L 1625 894.3000000000004 L 1626 901.9000000000004 L 1631 912.7000000000004 L 1639 932.3000000000004 L 1641 936.7000000000004 L 1647 945.9000000000004 L 1653 957.5000000000005 L 1665 971.1000000000005 L 1672 978.3000000000005 L 1675 983.5000000000006 L 1673 986.3000000000005 L 1673 992.7000000000005 L 1676 996.7000000000005 L 1681 1009.0000000000005 L 1688 1021.0000000000005 L 1695 1033.0000000000005 L 1702 1045.0000000000005 L 1705 1049.0000000000005 L 1706 1057.0000000000005 L 1706 1069.0000000000005 L 1707 1085.0000000000005 L 1709 1093.0000000000005 L 1704 1097.0000000000005 L 1702 1109.0000000000005 L 1704 1113.0000000000005 L 1702 1117.0000000000005 L 1702 1117.0000000000005 L 1702 1117.0000000000005 L 1706 1113.0000000000005 L 1703 1125.0000000000005 L 1698 1121.0000000000005 L 1695 1121.0000000000005 L 1690 1125.0000000000005 L 1684 1125.0000000000005 L 1683 1125.0000000000005 L 1676 1129.0000000000005 L 1672 1125.0000000000005 L 1673 1117.0000000000005 L 1670 1113.0000000000005 L 1666 1109.0000000000005 L 1664 1105.0000000000005 L 1656 1101.0000000000005 L 1650 1097.0000000000005 L 1648 1101.0000000000005 L 1642 1089.0000000000005 L 1639 1081.0000000000005 L 1631 1073.0000000000005 L 1626 1073.0000000000005 L 1627 1065.0000000000005 L 1627 1061.0000000000005 L 1624 1057.0000000000005 L 1622 1057.0000000000005 L 1624 1065.0000000000005 L 1622 1065.0000000000005 L 1619 1065.0000000000005 L 1614 1057.0000000000005 L 1607 1049.0000000000005 L 1601 1041.0000000000005 L 1598 1037.0000000000005 L 1601 1037.0000000000005 L 1604 1029.0000000000005 L 1608 1021.0000000000005 L 1607 1017.0000000000005 L 1603 1021.0000000000005 L 1601 1017.0000000000005 L 1598 1013.0000000000005 L 1598 1017.0000000000005 L 1601 1021.0000000000005 L 1600 1029.0000000000005 L 1596 1029.0000000000005 L 1590 1021.0000000000005 L 1592 1017.0000000000005 L 1590 1009.0000000000005 L 1592 1005.0000000000005 L 1594 996.7000000000005 L 1594 992.7000000000005 L 1593 986.3000000000005 L 1589 980.7000000000005 L 1590 977.1000000000005 L 1588 973.9000000000004 L 1584 967.5000000000005 L 1578 967.5000000000005 L 1570 963.1000000000005 L 1568 958.3000000000005 L 1561 954.7000000000005 L 1560 948.7000000000005 L 1557 948.3000000000005 L 1552 944.7000000000005 L 1548 938.7000000000005 L 1539 935.1000000000005 L 1536 933.9000000000004 L 1532 933.9000000000004 L 1526 934.3000000000004 L 1520 940.3000000000004 L 1516 943.9000000000004 L 1505 952.3000000000004 L 1496 954.7000000000004 L 1492 955.9000000000004 L 1488 956.7000000000004 L 1488 951.9000000000004 L 1485 946.7000000000004 L 1480 945.1000000000004 L 1477 942.3000000000004 L 1461 934.3000000000004 L 1453 932.3000000000004 L 1445 930.7000000000004 L 1437 931.5000000000003 L 1431 932.3000000000003 L 1426 933.9000000000003 L 1418 935.9000000000003 L 1412 936.7000000000003 L 1405 939.5000000000002 L 1400 941.1000000000003 L 1396 939.5000000000002 L 1390 935.1000000000003 L 1388 925.1000000000003 L 1385 923.5000000000002 L 1382 928.7000000000003 L 1382 937.5000000000002 L 1380 937.9000000000002 L 1374 936.7000000000002 L 1372 937.9000000000002 L 1370 940.3000000000002 L 1362 939.5000000000002 L 1359 940.3000000000002 L 1354 937.5000000000002 L 1339 943.9000000000002 L 1337 941.1000000000003 L 1337 943.9000000000002 L 1331 949.5000000000002 L 1327 951.1000000000003 L 1324 954.7000000000003 L 1319 957.5000000000002 L 1320 960.3000000000002 L 1325 963.1000000000001 L 1328 962.7000000000002 L 1329 957.5000000000001 L 1332 955.5000000000001 L 1335 958.3000000000001 L 1339 960.3000000000001 L 1333 972.7 L 1332 971.9000000000001 L 1331 971.9000000000001 L 1326 973.5000000000001 L 1327 977.5000000000001 L 1335 982.7000000000002 L 1345 984.3000000000002 L 1352 992.7000000000002 L 1351 996.7000000000002 L 1342 996.7000000000002 L 1335 988.7000000000002 L 1328 987.9000000000002 L 1323 986.3000000000002 L 1324 984.3000000000002 L 1316 981.1000000000001 L 1314 984.7000000000002 L 1314 985.5000000000001 L 1314 986.3000000000001 L 1311 988.7 L 1313 992.7 L 1313 992.7 L 1308 996.7 L 1304 988.7 L 1300 988.7 L 1295 988.7 L 1291 996.7 L 1284 1001 L 1280 996.7 L 1276 996.7 L 1267 992.7 L 1269 984.7 L 1268 984.7 L 1264 982.7 L 1260 984.3000000000001 L 1254 972.7 L 1245 973.5 L 1246 969.1 L 1241 969.1 L 1235 973.5 L 1232 973.9 L 1234 980.6999999999999 L 1228 982.6999999999999 L 1217 981.0999999999999 L 1203 975.4999999999999 L 1195 973.4999999999999 L 1184 973.8999999999999 L 1174 975.4999999999999 L 1171 977.4999999999999 L 1162 979.0999999999999 L 1151 983.4999999999999 L 1151 984.2999999999998 L 1147 984.2999999999998 L 1145 983.4999999999999 L 1136 985.4999999999999 L 1138 980.6999999999999 L 1138 975.4999999999999 L 1134 975.4999999999999 L 1130 979.0999999999999 L 1127 984.6999999999999 L 1132 988.6999999999999 L 1131 996.6999999999999 L 1126 1000.9999999999999 L 1122 1000.9999999999999 L 1123 1004.9999999999999 L 1113 1012.9999999999999 L 1109 1016.9999999999999 L 1099 1020.9999999999999 L 1087 1029 L 1076 1033 L 1074 1037 L 1068 1041 L 1058 1049 L 1058 1045 L 1059 1045 L 1064 1041 L 1068 1037 L 1074 1037 L 1073 1033 L 1064 1037 L 1064 1033 L 1061 1033 L 1058 1033 L 1060 1037 L 1060 1041 L 1059 1041 L 1055 1045 L 1051 1041 L 1043 1049 L 1050 1049 L 1047 1053 L 1047 1057 L 1046 1057 L 1035 1057 L 1033 1057 L 1037 1057 L 1039 1061 L 1042 1065 L 1039 1069 L 1036 1081 L 1032 1077 L 1028 1081 L 1023 1081 L 1031 1085 L 1036 1081 L 1034 1101 L 1032 1101 L 1034 1109 L 1038 1117 L 1040 1125 L 1039 1125 L 1040 1133 L 1045 1133 L 1042 1137 L 1037 1141 L 1036 1141 L 1030 1141 L 1026 1137 L 1018 1133 L 1010 1133 L 1002 1133 L 994.5 1125 L 989.3 1125 L 986.5 1125 L 980.1 1121 L 977.7 1121 L 970.5 1117 L 970.1 1113 L 966.9 1109 L 963.3 1097 L 956.9 1089 L 958.5 1085 L 956.9 1081 L 955.6999999999999 1077 L 956.9 1069 L 955.6999999999999 1069 L 952.0999999999999 1065 L 947.6999999999999 1061 L 941.6999999999999 1057 L 941.3 1053 L 938.0999999999999 1049 L 934.4999999999999 1041 L 929.6999999999999 1041 L 926.9 1037 L 925.3 1029 L 921.6999999999999 1021 L 920.0999999999999 1017 L 918.0999999999999 1013 L 914.4999999999999 1005 L 914.4999999999999 1001 L 910.0999999999999 992.7 L 902.0999999999999 987.9000000000001 L 900.8999999999999 983.5000000000001 L 897.2999999999998 982.7000000000002 L 891.2999999999998 977.5000000000001 L 892.0999999999998 975.5000000000001 L 886.4999999999998 970.3000000000001 L 882.0999999999998 968.3000000000001 L 879.2999999999998 969.9000000000001 L 874.8999999999999 968.3000000000001 L 866.8999999999999 966.3000000000001 L 863.2999999999998 967.5000000000001 L 854.8999999999999 962.7000000000002 L 851.2999999999998 967.5000000000001 L 848.0999999999998 966.3000000000001 L 840.4999999999998 968.3000000000001 L 838.0999999999998 973.5000000000001 L 835.2999999999998 977.1000000000001 L 833.6999999999998 983.5000000000001 L 820.8999999999999 1001.0000000000001 L 810.8999999999999 996.7000000000002 L 806.4999999999999 988.7000000000002 L 800.0999999999999 988.3000000000002 L 797.6999999999999 984.7000000000002 L 789.3 981.9000000000002 L 784.0999999999999 978.3000000000002 L 782.8999999999999 973.9000000000002 L 778.4999999999999 972.7000000000002 L 772.0999999999999 966.7000000000002 L 771.3 962.7000000000002 L 766.9 954.7000000000002 L 766.1 948.3000000000002 L 767.7 943.1000000000001 L 764.1 934.3000000000002 L 761.7 933.9000000000002 L 761.3000000000001 925.9000000000002 L 758.9000000000001 923.1000000000003 L 750.9000000000001 914.3000000000003 L 744.5000000000001 912.3000000000003 L 743.7000000000002 909.9000000000003 L 738.9000000000002 905.5000000000003 L 737.3000000000002 901.5000000000003 L 731.7000000000002 897.1000000000004 L 728.9000000000002 891.1000000000004 L 724.5000000000002 886.7000000000004 L 722.1000000000003 886.3000000000004 L 717.3000000000003 881.9000000000004 L 712.1000000000003 870.3000000000004 L 707.3000000000003 867.5000000000005 L 679.7000000000003 864.7000000000005 L 646.5000000000002 860.3000000000005 L 643.7000000000003 879.5000000000006 L 613.7000000000003 875.5000000000006 L 562.5000000000002 868.3000000000005 L 540.1000000000003 864.7000000000005 L 530.1000000000003 858.7000000000005 L 500.5000000000002 841.5000000000005 L 463.7000000000002 820.7000000000005 L 433.7000000000002 801.9000000000005 L 414.9000000000002 791.1000000000006 L 416.1000000000002 785.9000000000005 L 420.50000000000017 782.3000000000005 L 370.90000000000015 776.7000000000005 L 334.10000000000014 771.5000000000005 L 333.40000000000015 765.9000000000004 L 330.50000000000017 763.9000000000004 L 332.70000000000016 756.7000000000004 L 332.00000000000017 745.9000000000004 L 328.40000000000015 735.5000000000005 L 325.50000000000017 731.9000000000004 L 320.50000000000017 724.3000000000004 L 316.1000000000002 720.7000000000004 L 311.1000000000002 713.5000000000003 L 304.6000000000002 713.5000000000003 L 300.3000000000002 709.1000000000004 L 302.50000000000017 706.7000000000004 L 301.70000000000016 701.9000000000004 L 298.10000000000014 696.7000000000004 L 289.5000000000001 696.7000000000004 L 285.2000000000001 693.9000000000004 L 277.3000000000001 687.5000000000005 L 276.5000000000001 681.5000000000005 L 270.8000000000001 675.1000000000005 L 267.90000000000015 673.1000000000005 L 257.10000000000014 670.3000000000005 L 253.50000000000014 667.1000000000005 L 244.10000000000014 664.3000000000005 L 237.70000000000013 663.5000000000006 L 236.90000000000012 659.9000000000005 L 233.30000000000013 656.3000000000005 L 236.20000000000013 651.5000000000006 L 237.70000000000013 639.9000000000005 L 239.10000000000014 633.5000000000006 L 231.90000000000015 626.3000000000005 L 234.80000000000015 619.9000000000005 L 231.20000000000016 616.3000000000005 L 227.60000000000016 607.5000000000006 L 224.70000000000016 605.5000000000006 L 223.30000000000015 599.5000000000006 L 220.40000000000015 594.7000000000006 L 220.40000000000015 588.7000000000006 L 218.20000000000016 587.5000000000006 L 215.30000000000015 579.5000000000006 L 212.50000000000014 576.7000000000006 L 211.00000000000014 565.1000000000006 L 213.20000000000013 558.7000000000006 L 217.50000000000014 559.1000000000006 L 219.70000000000013 551.5000000000006 L 217.50000000000014 544.7000000000006 L 212.50000000000014 544.7000000000006 L 208.10000000000014 539.9000000000007 L 207.40000000000015 535.5000000000007 L 204.50000000000014 531.1000000000007 L 206.70000000000013 524.7000000000007 L 206.00000000000014 518.3000000000008 L 204.50000000000014 516.7000000000007 L 207.40000000000015 508.7000000000007 L 208.10000000000014 505.9000000000007 L 211.70000000000013 505.1000000000007 L 211.00000000000014 509.5000000000007 L 210.30000000000015 515.5000000000007 L 213.90000000000015 516.7000000000007 L 216.80000000000015 522.7000000000007 L 219.70000000000016 523.1000000000007 L 217.50000000000017 521.1000000000007 L 218.20000000000016 513.9000000000007 L 213.90000000000015 506.70000000000067 L 215.30000000000015 503.10000000000065 L 213.20000000000016 498.70000000000067 L 218.90000000000015 496.70000000000067 L 216.10000000000014 491.5000000000007 L 212.50000000000014 492.3000000000007 L 208.90000000000015 504.70000000000067 L 203.10000000000014 499.5000000000007 L 200.20000000000013 493.90000000000066 L 197.30000000000013 491.5000000000007 L 198.10000000000014 485.90000000000066 L 198.10000000000014 479.90000000000066 L 195.90000000000015 472.30000000000064 L 190.90000000000015 465.10000000000065 L 187.30000000000015 454.70000000000067 L 184.40000000000015 450.70000000000067 L 182.90000000000015 445.5000000000007 L 185.80000000000015 441.90000000000066 L 185.10000000000016 428.30000000000064 L 189.40000000000018 420.30000000000064 L 190.10000000000016 407.90000000000066 L 187.30000000000015 399.5000000000007 L 185.80000000000015 394.3000000000007 L 183.70000000000016 392.3000000000007 L 179.30000000000015 385.1000000000007 L 180.80000000000015 377.1000000000007 L 185.10000000000016 370.7000000000007 L 193.70000000000016 361.9000000000007 L 197.30000000000015 356.3000000000007 L 196.60000000000016 353.5000000000007 L 200.20000000000016 347.5000000000007 L 203.80000000000015 338.3000000000007 L 204.50000000000014 325.9000000000007 L 202.40000000000015 323.9000000000007 L 206.70000000000016 315.1000000000007 L 203.80000000000015 308.7000000000007 L 203.80000000000015 303.1000000000007 L 205.30000000000015 295.1000000000007 L 208.10000000000016 289.1000000000007 L 208.90000000000018 285.5000000000007 L 206.7000000000002 277.1000000000007 L 210.30000000000018 272.7000000000007 L 217.50000000000017 261.1000000000007 L 222.50000000000017 254.7000000000007 L 226.90000000000018 248.3000000000007 L 231.2000000000002 238.3000000000007 L 237.7000000000002 221.50000000000068 L 244.1000000000002 206.3000000000007 L 245.6000000000002 200.7000000000007 L 250.6000000000002 191.5000000000007 L 252.80000000000018 187.1000000000007 L 261.4000000000002 163.1000000000007 L 261.4000000000002 161.1000000000007 L 265.7000000000002 149.5000000000007 L 269.30000000000024 146.7000000000007 L 279.40000000000026 145.1000000000007 L 274.40000000000026 142.3000000000007 L 269.30000000000024 143.1000000000007 L 267.2000000000002 139.5000000000007 L 268.6000000000002 133.1000000000007 L 272.2000000000002 131.5000000000007 L 271.5000000000002 122.70000000000071 L 270.10000000000025 118.70000000000071 L 271.5000000000002 115.50000000000071 L 275.10000000000025 114.30000000000071 L 275.10000000000025 109.1000000000007 L 271.5000000000002 108.30000000000071 L 272.2000000000002 97.1000000000007 L 270.80000000000024 91.1000000000007 L 272.2000000000002 86.30000000000071 L 272.2000000000002 76.70000000000071 L 269.30000000000024 69.50000000000071 L 268.60000000000025 64.70000000000071 L 269.30000000000024 56.70000000000071 L 273.7000000000002 50.70000000000071 L 276.5000000000002 50.300000000000715 L 280.9000000000002 55.10000000000071 L 284.5000000000002 57.50000000000071 L 288.80000000000024 62.30000000000071 L 298.10000000000025 65.9000000000007 L 305.30000000000024 70.30000000000071 L 310.40000000000026 71.9000000000007 L 313.30000000000024 70.30000000000071 L 315.40000000000026 74.70000000000071 L 318.30000000000024 75.90000000000072 L 323.30000000000024 73.90000000000072 L 325.5000000000002 76.70000000000071 L 324.10000000000025 86.70000000000071 L 316.90000000000026 88.30000000000071 L 314.0000000000003 93.50000000000071 L 311.1000000000003 94.70000000000071 L 308.9000000000003 97.50000000000071 L 313.3000000000003 94.70000000000071 L 318.3000000000003 93.90000000000072 L 321.9000000000003 89.10000000000072 L 327.70000000000033 85.50000000000072 L 326.9000000000003 92.70000000000073 L 324.1000000000003 102.70000000000073 L 321.20000000000033 106.30000000000072 L 318.30000000000035 111.90000000000072 L 313.30000000000035 108.30000000000072 L 313.30000000000035 106.30000000000072 L 310.4000000000004 109.10000000000072 L 309.7000000000004 113.50000000000072 L 313.3000000000004 117.90000000000073 L 320.5000000000004 111.90000000000073 L 324.1000000000004 110.70000000000073 L 326.90000000000043 109.10000000000073 L 326.90000000000043 100.70000000000073 L 329.8000000000004 92.70000000000073 L 334.1000000000004 86.30000000000072 L 337.70000000000044 83.90000000000072 L 334.90000000000043 79.50000000000071 L 334.90000000000043 73.90000000000072 L 334.90000000000043 72.30000000000072 L 336.3000000000004 71.10000000000072 L 329.8000000000004 64.70000000000071 L 332.7000000000004 60.300000000000715 L 335.60000000000036 63.10000000000071 L 337.7000000000004 55.90000000000071 L 338.5000000000004 52.30000000000071 L 333.4000000000004 47.90000000000071 L 332.0000000000004 43.50000000000071 L 334.1000000000004 39.50000000000071 L 362.20000000000044 47.10000000000071 L 386.70000000000044 53.90000000000071 z" stroke-linecap="round" />
</g>
		<g transform="matrix(1 0 0 1 853.36 563.96)" style="" id="text4591"  >
		<text xml:space="preserve" font-family="sans-serif" font-size="24" font-style="normal" font-weight="normal" style="stroke: none; stroke-width: 1; stroke-dasharray: none; stroke-linecap: butt; stroke-dashoffset: 0; stroke-linejoin: miter; stroke-miterlimit: 4; fill: rgb(112,172,252); fill-rule: nonzero; opacity: 1; white-space: pre;" ><tspan x="-90.02" y="7.54" >(с) Fla-shop.com</tspan></text>
</g>
</g>
</g>
<g transform="matrix(NaN NaN NaN NaN 0 0)"  >
<g style=""   >
</g>
</g>
<g transform="matrix(NaN NaN NaN NaN 0 0)"  >
<g style=""   >
</g>
</g>
</svg>