<svg xmlns="http://www.w3.org/2000/svg" xmlns:xlink="http://www.w3.org/1999/xlink" width="1920" zoomAndPan="magnify" viewBox="0 0 1440 809.999993" height="1080" preserveAspectRatio="xMidYMid meet" version="1.2"><defs><clipPath id="7ff7ea2fda"><path d="M 760 365 L 1026 365 L 1026 680.765625 L 760 680.765625 Z M 760 365 "/></clipPath><clipPath id="65620ff8af"><path d="M 481 365 L 747 365 L 747 680.765625 L 481 680.765625 Z M 481 365 "/></clipPath><clipPath id="4ca534bc09"><path d="M 649.125 157.175781 L 858 157.175781 L 858 481.175781 L 649.125 481.175781 Z M 649.125 157.175781 "/></clipPath><clipPath id="88d4864536"><path d="M 732 157.175781 L 858 157.175781 L 858 481.175781 L 732 481.175781 Z M 732 157.175781 "/></clipPath><clipPath id="caf7e22187"><path d="M 657 157.175781 L 858 157.175781 L 858 481.175781 L 657 481.175781 Z M 657 157.175781 "/></clipPath></defs><g id="58562f99c9"><path style=" stroke:none;fill-rule:nonzero;fill:#70acfc;fill-opacity:1;" d="M 982.820312 383.015625 C 966.488281 411.695312 946.234375 444.40625 946.214844 444.441406 C 939.589844 438.835938 928.933594 438.203125 917.21875 447.089844 C 910.335938 452.316406 870.0625 489.128906 850.667969 499.21875 C 827.230469 511.398438 800.046875 505.773438 777.554688 527.335938 C 757.195312 546.84375 761.613281 589.207031 769.117188 605.140625 C 775.414062 618.511719 782.527344 663.925781 784.648438 678.179688 L 881.367188 678.179688 C 878.050781 666 869.523438 630.335938 874.101562 599.980469 C 876.171875 586.246094 914.417969 555.164062 954.246094 519.132812 C 969.003906 505.773438 1016.765625 405.960938 1021.730469 392.589844 C 1030.871094 367.984375 997.808594 356.710938 982.820312 383.015625 "/><g clip-rule="nonzero" clip-path="url(#7ff7ea2fda)"><path style=" stroke:none;fill-rule:nonzero;fill:#f4f4f4;fill-opacity:1;" d="M 982.820312 383.015625 L 980.667969 381.789062 C 972.519531 396.097656 963.378906 411.4375 956.277344 423.191406 C 952.730469 429.066406 949.691406 434.054688 947.535156 437.570312 C 946.460938 439.324219 945.601562 440.71875 945.015625 441.671875 C 944.722656 442.144531 944.5 442.511719 944.34375 442.761719 L 944.167969 443.039062 L 944.125 443.109375 L 944.109375 443.128906 L 944.105469 443.136719 L 944.105469 443.144531 L 944.085938 443.183594 L 946.214844 444.441406 L 947.8125 442.550781 C 944.304688 439.574219 939.746094 437.820312 934.660156 437.828125 C 928.796875 437.828125 922.3125 440.109375 915.722656 445.117188 C 914.773438 445.832031 913.386719 446.988281 911.574219 448.53125 C 905.253906 453.894531 893.894531 463.867188 881.996094 473.597656 C 876.054688 478.460938 869.980469 483.253906 864.363281 487.367188 C 858.75 491.484375 853.570312 494.917969 849.523438 497.019531 C 838.3125 502.863281 825.914062 504.507812 813.214844 507.339844 C 806.871094 508.765625 800.46875 510.5 794.164062 513.292969 C 787.871094 516.085938 781.683594 519.953125 775.839844 525.550781 C 769.988281 531.164062 766.128906 538.445312 763.722656 546.320312 C 761.316406 554.203125 760.355469 562.707031 760.355469 570.910156 C 760.355469 577.988281 761.074219 584.84375 762.242188 590.910156 C 763.40625 596.972656 765.015625 602.238281 766.878906 606.191406 C 768.3125 609.230469 769.9375 614.503906 771.496094 620.789062 C 776.207031 639.683594 780.613281 667.890625 782.199219 678.546875 C 782.378906 679.761719 783.425781 680.65625 784.648438 680.65625 L 881.367188 680.65625 C 882.132812 680.65625 882.867188 680.296875 883.332031 679.683594 C 883.804688 679.070312 883.957031 678.269531 883.757812 677.527344 C 881.140625 667.957031 875.25 643.507812 875.257812 618.945312 C 875.257812 612.667969 875.636719 606.382812 876.546875 600.351562 C 876.726562 599.121094 877.40625 597.367188 878.636719 595.300781 C 880.777344 591.671875 884.519531 587.089844 889.453125 581.871094 C 904.273438 566.175781 929.738281 544.636719 955.910156 520.96875 C 958.050781 519.015625 960.4375 515.90625 963.230469 511.796875 C 968.089844 504.613281 974.011719 494.414062 980.261719 482.917969 C 989.640625 465.683594 999.75 445.5625 1007.929688 428.640625 C 1012.019531 420.183594 1015.628906 412.523438 1018.417969 406.417969 C 1021.214844 400.304688 1023.183594 395.796875 1024.054688 393.453125 C 1025.230469 390.300781 1025.785156 387.28125 1025.785156 384.460938 C 1025.796875 378.734375 1023.449219 373.851562 1019.738281 370.554688 C 1016.035156 367.246094 1011.050781 365.457031 1005.753906 365.457031 C 1001.308594 365.457031 996.632812 366.714844 992.265625 369.398438 C 987.90625 372.074219 983.867188 376.171875 980.667969 381.789062 L 984.976562 384.242188 C 987.800781 379.273438 991.253906 375.835938 994.859375 373.617188 C 998.472656 371.40625 1002.246094 370.410156 1005.753906 370.410156 C 1009.941406 370.410156 1013.734375 371.824219 1016.4375 374.242188 C 1019.132812 376.679688 1020.808594 380.0625 1020.828125 384.460938 C 1020.828125 386.628906 1020.402344 389.058594 1019.410156 391.726562 C 1018.835938 393.277344 1017.550781 396.296875 1015.753906 400.304688 C 1009.445312 414.367188 996.734375 440.886719 984.023438 465.289062 C 977.667969 477.492188 971.300781 489.175781 965.746094 498.496094 C 962.972656 503.152344 960.398438 507.222656 958.140625 510.457031 C 955.902344 513.679688 953.9375 516.082031 952.585938 517.292969 C 932.699219 535.292969 913.179688 552.0625 898.3125 566.117188 C 890.875 573.148438 884.605469 579.496094 879.992188 585.039062 C 877.6875 587.804688 875.792969 590.378906 874.371094 592.78125 C 872.960938 595.179688 871.992188 597.40625 871.652344 599.609375 C 870.695312 605.9375 870.300781 612.46875 870.300781 618.945312 C 870.308594 644.277344 876.308594 669.015625 878.980469 678.832031 L 881.367188 678.179688 L 881.367188 675.703125 L 784.648438 675.703125 L 784.648438 678.179688 L 787.101562 677.820312 C 786.039062 670.664062 783.722656 655.726562 780.875 640.863281 C 779.457031 633.433594 777.910156 626.019531 776.304688 619.589844 C 774.691406 613.144531 773.070312 607.730469 771.363281 604.082031 C 769.742188 600.667969 768.207031 595.722656 767.105469 589.96875 C 765.996094 584.21875 765.3125 577.652344 765.3125 570.910156 C 765.3125 563.09375 766.238281 555.050781 768.460938 547.765625 C 770.683594 540.484375 774.1875 533.996094 779.265625 529.125 C 784.667969 523.949219 790.320312 520.421875 796.175781 517.824219 C 804.957031 513.925781 814.238281 512.140625 823.664062 510.210938 C 833.082031 508.269531 842.648438 506.171875 851.808594 501.414062 C 856.886719 498.773438 863.097656 494.527344 869.765625 489.535156 C 879.757812 482.046875 890.730469 472.886719 899.859375 465.101562 C 904.421875 461.210938 908.523438 457.671875 911.800781 454.859375 C 915.0625 452.050781 917.539062 449.949219 918.714844 449.058594 C 924.65625 444.554688 930.105469 442.78125 934.660156 442.78125 C 938.621094 442.789062 941.964844 444.097656 944.613281 446.328125 C 945.167969 446.800781 945.910156 447.007812 946.628906 446.882812 C 947.34375 446.761719 947.976562 446.328125 948.347656 445.703125 L 946.246094 444.460938 L 948.328125 445.734375 L 948.347656 445.703125 L 946.246094 444.460938 L 948.328125 445.734375 C 948.421875 445.582031 968.644531 412.921875 984.976562 384.242188 L 982.820312 383.015625 "/></g><path style=" stroke:none;fill-rule:nonzero;fill:#70acfc;fill-opacity:1;" d="M 946.214844 444.441406 C 946.214844 444.441406 972.398438 471.0625 876.617188 531.996094 "/><path style=" stroke:none;fill-rule:nonzero;fill:#f4f4f4;fill-opacity:1;" d="M 944.445312 446.179688 L 945.085938 445.554688 L 944.425781 446.15625 L 944.445312 446.179688 L 945.085938 445.554688 L 944.425781 446.15625 C 944.464844 446.195312 945.109375 446.910156 945.742188 448.324219 C 946.375 449.734375 947.007812 451.84375 947.007812 454.761719 C 947.007812 460.425781 944.59375 469.328125 934.359375 481.828125 C 924.128906 494.316406 906.105469 510.300781 875.28125 529.90625 C 874.128906 530.640625 873.792969 532.167969 874.527344 533.324219 C 875.257812 534.476562 876.792969 534.820312 877.945312 534.085938 C 909.050781 514.289062 927.460938 498.050781 938.191406 484.96875 C 948.902344 471.898438 951.960938 461.882812 951.960938 454.761719 C 951.96875 450.878906 951.046875 447.910156 950.085938 445.910156 C 949.125 443.902344 948.128906 442.859375 947.980469 442.703125 C 947.019531 441.730469 945.453125 441.71875 944.480469 442.679688 C 943.503906 443.632812 943.492188 445.199219 944.445312 446.179688 "/><path style=" stroke:none;fill-rule:nonzero;fill:#70acfc;fill-opacity:1;" d="M 524.402344 383.015625 C 540.738281 411.695312 560.992188 444.40625 561.011719 444.441406 C 567.636719 438.835938 578.300781 438.203125 590.007812 447.089844 C 596.890625 452.316406 637.167969 489.128906 656.558594 499.21875 C 679.996094 511.398438 707.175781 505.773438 729.675781 527.335938 C 750.03125 546.84375 745.609375 589.207031 738.109375 605.140625 C 731.820312 618.511719 724.703125 663.925781 722.574219 678.179688 L 625.859375 678.179688 C 629.183594 666 637.710938 630.335938 633.128906 599.980469 C 631.054688 586.246094 592.8125 555.164062 552.980469 519.132812 C 538.222656 505.773438 490.460938 405.960938 485.492188 392.589844 C 476.351562 367.984375 509.417969 356.710938 524.402344 383.015625 "/><g clip-rule="nonzero" clip-path="url(#65620ff8af)"><path style=" stroke:none;fill-rule:nonzero;fill:#f4f4f4;fill-opacity:1;" d="M 524.402344 383.015625 L 522.25 384.242188 C 530.433594 398.613281 539.589844 413.972656 546.703125 425.753906 C 550.265625 431.640625 553.308594 436.632812 555.46875 440.15625 C 556.546875 441.917969 557.40625 443.3125 557.992188 444.273438 C 558.289062 444.75 558.515625 445.109375 558.667969 445.363281 L 558.84375 445.644531 L 558.890625 445.71875 L 558.902344 445.734375 L 558.902344 445.742188 L 559.605469 445.304688 L 558.902344 445.742188 L 559.605469 445.304688 L 558.902344 445.742188 L 560.945312 444.484375 L 558.890625 445.722656 L 558.902344 445.742188 L 560.945312 444.484375 L 558.890625 445.722656 C 559.269531 446.34375 559.894531 446.769531 560.613281 446.882812 C 561.328125 447.007812 562.054688 446.800781 562.609375 446.328125 C 565.261719 444.097656 568.605469 442.789062 572.566406 442.78125 C 577.117188 442.78125 582.570312 444.554688 588.511719 449.066406 C 589.285156 449.652344 590.664062 450.789062 592.445312 452.304688 C 598.710938 457.617188 610.121094 467.636719 622.09375 477.429688 C 628.078125 482.332031 634.214844 487.175781 639.941406 491.367188 C 645.671875 495.5625 650.972656 499.101562 655.417969 501.414062 C 667.640625 507.753906 680.550781 509.386719 692.929688 512.179688 C 699.128906 513.566406 705.195312 515.230469 711.046875 517.824219 C 716.90625 520.421875 722.554688 523.949219 727.960938 529.125 C 733.042969 533.996094 736.542969 540.484375 738.765625 547.765625 C 740.984375 555.050781 741.921875 563.09375 741.914062 570.910156 C 741.914062 577.652344 741.230469 584.21875 740.121094 589.96875 C 739.019531 595.722656 737.476562 600.667969 735.871094 604.082031 C 734.152344 607.730469 732.535156 613.152344 730.921875 619.589844 C 726.125 638.855469 721.730469 667.085938 720.125 677.820312 L 722.574219 678.179688 L 722.574219 675.703125 L 625.859375 675.703125 L 625.859375 678.179688 L 628.253906 678.832031 C 630.925781 669.015625 636.917969 644.277344 636.921875 618.945312 C 636.921875 612.46875 636.53125 605.9375 635.574219 599.609375 C 635.234375 597.40625 634.265625 595.179688 632.851562 592.78125 C 630.371094 588.585938 626.441406 583.839844 621.371094 578.472656 C 606.191406 562.410156 580.75 540.917969 554.644531 517.292969 C 553.097656 515.90625 550.761719 512.972656 548.097656 509.015625 C 543.40625 502.082031 537.523438 491.960938 531.320312 480.550781 C 521.996094 463.417969 511.910156 443.355469 503.753906 426.488281 C 499.683594 418.054688 496.085938 410.417969 493.3125 404.355469 C 490.542969 398.304688 488.578125 393.777344 487.816406 391.726562 C 486.820312 389.058594 486.394531 386.628906 486.394531 384.460938 C 486.414062 380.0625 488.097656 376.679688 490.796875 374.242188 C 493.492188 371.824219 497.285156 370.410156 501.472656 370.410156 C 504.980469 370.410156 508.753906 371.40625 512.367188 373.617188 C 515.972656 375.835938 519.421875 379.273438 522.25 384.242188 L 526.558594 381.789062 C 523.359375 376.171875 519.320312 372.074219 514.960938 369.398438 C 510.59375 366.714844 505.917969 365.457031 501.472656 365.457031 C 496.175781 365.457031 491.195312 367.246094 487.488281 370.554688 C 483.777344 373.851562 481.429688 378.734375 481.441406 384.460938 C 481.441406 387.28125 481.996094 390.300781 483.171875 393.453125 C 483.835938 395.246094 485.132812 398.273438 486.949219 402.328125 C 493.316406 416.519531 506.039062 443.066406 518.8125 467.578125 C 525.195312 479.835938 531.589844 491.582031 537.222656 501.03125 C 540.039062 505.761719 542.664062 509.914062 545.019531 513.289062 C 547.386719 516.667969 549.4375 519.253906 551.316406 520.96875 C 571.261719 539.011719 590.78125 555.792969 605.507812 569.71875 C 612.875 576.679688 619.042969 582.929688 623.429688 588.207031 C 625.621094 590.839844 627.363281 593.230469 628.589844 595.300781 C 629.820312 597.367188 630.5 599.121094 630.679688 600.351562 C 631.589844 606.382812 631.976562 612.667969 631.976562 618.945312 C 631.980469 643.507812 626.085938 667.957031 623.472656 677.527344 C 623.265625 678.269531 623.429688 679.070312 623.894531 679.683594 C 624.355469 680.296875 625.09375 680.65625 625.859375 680.65625 L 722.574219 680.65625 C 723.800781 680.65625 724.847656 679.761719 725.027344 678.546875 C 726.085938 671.4375 728.394531 656.542969 731.210938 641.792969 C 732.625 634.417969 734.160156 627.078125 735.726562 620.789062 C 737.289062 614.503906 738.914062 609.230469 740.351562 606.191406 C 742.210938 602.238281 743.816406 596.972656 744.984375 590.910156 C 746.152344 584.84375 746.867188 577.988281 746.867188 570.910156 C 746.867188 562.707031 745.90625 554.203125 743.5 546.320312 C 741.101562 538.445312 737.246094 531.164062 731.386719 525.550781 C 725.550781 519.953125 719.355469 516.085938 713.058594 513.292969 C 703.605469 509.109375 693.929688 507.289062 684.5625 505.359375 C 675.183594 503.429688 666.117188 501.398438 657.699219 497.019531 C 653.082031 494.621094 646.980469 490.476562 640.433594 485.570312 C 630.59375 478.195312 619.675781 469.085938 610.585938 461.335938 C 606.039062 457.457031 601.941406 453.914062 598.65625 451.097656 C 595.359375 448.269531 592.917969 446.1875 591.503906 445.117188 C 584.910156 440.109375 578.429688 437.828125 572.566406 437.828125 C 567.480469 437.820312 562.921875 439.574219 559.410156 442.550781 L 561.011719 444.441406 L 563.132812 443.164062 L 563.121094 443.144531 C 563.023438 442.980469 542.828125 410.359375 526.558594 381.789062 L 524.402344 383.015625 "/></g><path style=" stroke:none;fill-rule:nonzero;fill:#70acfc;fill-opacity:1;" d="M 561.011719 444.441406 C 561.011719 444.441406 534.835938 471.0625 630.613281 531.996094 "/><path style=" stroke:none;fill-rule:nonzero;fill:#f4f4f4;fill-opacity:1;" d="M 559.242188 442.703125 C 559.09375 442.859375 558.101562 443.902344 557.140625 445.910156 C 556.179688 447.910156 555.265625 450.878906 555.265625 454.761719 C 555.265625 461.882812 558.320312 471.898438 569.035156 484.96875 C 579.761719 498.050781 598.171875 514.289062 629.285156 534.085938 C 630.441406 534.820312 631.96875 534.476562 632.703125 533.324219 C 633.433594 532.167969 633.097656 530.640625 631.941406 529.90625 C 601.121094 510.300781 583.097656 494.316406 572.867188 481.828125 C 562.628906 469.328125 560.21875 460.425781 560.21875 454.761719 C 560.21875 451.652344 560.933594 449.457031 561.609375 448.050781 C 561.945312 447.347656 562.277344 446.839844 562.5 446.53125 C 562.617188 446.375 562.703125 446.265625 562.753906 446.207031 L 562.796875 446.15625 L 562.140625 445.550781 L 562.777344 446.179688 L 562.796875 446.15625 L 562.140625 445.550781 L 562.777344 446.179688 C 563.738281 445.199219 563.726562 443.632812 562.746094 442.679688 C 561.773438 441.71875 560.203125 441.730469 559.242188 442.703125 "/><g clip-rule="nonzero" clip-path="url(#4ca534bc09)"><path style=" stroke:none;fill-rule:nonzero;fill:#70acfc;fill-opacity:1;" d="M 857.964844 364.457031 C 857.964844 428.914062 811.242188 481.167969 753.601562 481.167969 C 695.964844 481.167969 649.238281 428.914062 649.238281 364.453125 C 649.242188 322.582031 672.003906 283.824219 693.496094 251.457031 C 712.332031 223.089844 735.988281 186.582031 753.601562 157.167969 C 768.054688 190.644531 795.351562 224.347656 814.863281 253.601562 C 835.933594 285.195312 857.964844 323.601562 857.964844 364.457031 "/></g><g clip-rule="nonzero" clip-path="url(#88d4864536)"><path style=" stroke:none;fill-rule:nonzero;fill:#e1f5fd;fill-opacity:1;" d="M 753.601562 481.167969 C 753.578125 481.167969 753.550781 481.167969 753.527344 481.167969 C 753.550781 481.167969 753.578125 481.167969 753.601562 481.167969 C 811.242188 481.167969 857.964844 428.914062 857.964844 364.457031 C 857.964844 428.914062 811.242188 481.167969 753.601562 481.167969 M 753.503906 481.164062 C 753.488281 481.164062 753.464844 481.164062 753.449219 481.164062 C 753.46875 481.164062 753.480469 481.164062 753.503906 481.164062 M 753.421875 481.164062 C 753.375 481.164062 753.324219 481.164062 753.273438 481.164062 C 753.324219 481.164062 753.375 481.164062 753.421875 481.164062 M 753.25 481.164062 C 753.230469 481.164062 753.214844 481.164062 753.195312 481.164062 C 753.210938 481.164062 753.230469 481.164062 753.25 481.164062 M 753.171875 481.164062 C 753.144531 481.164062 753.125 481.164062 753.097656 481.164062 C 753.121094 481.164062 753.148438 481.164062 753.171875 481.164062 M 753.09375 481.164062 C 753.070312 481.164062 753.042969 481.164062 753.019531 481.164062 C 753.042969 481.164062 753.070312 481.164062 753.09375 481.164062 M 752.996094 481.164062 C 752.976562 481.164062 752.960938 481.164062 752.941406 481.164062 C 752.964844 481.164062 752.976562 481.164062 752.996094 481.164062 M 752.917969 481.164062 C 752.894531 481.164062 752.875 481.164062 752.851562 481.164062 C 752.871094 481.164062 752.894531 481.164062 752.917969 481.164062 M 752.839844 481.164062 C 752.816406 481.164062 752.789062 481.160156 752.765625 481.160156 C 752.789062 481.160156 752.816406 481.164062 752.839844 481.164062 M 752.746094 481.160156 C 752.726562 481.160156 752.703125 481.160156 752.6875 481.160156 C 752.707031 481.160156 752.726562 481.160156 752.746094 481.160156 M 752.667969 481.160156 C 752.640625 481.160156 752.617188 481.160156 752.59375 481.160156 C 752.621094 481.160156 752.640625 481.160156 752.667969 481.160156 M 752.589844 481.160156 C 752.566406 481.160156 752.535156 481.160156 752.511719 481.160156 C 752.535156 481.160156 752.566406 481.160156 752.589844 481.160156 M 752.492188 481.160156 C 752.472656 481.160156 752.453125 481.15625 752.433594 481.15625 C 752.457031 481.15625 752.472656 481.15625 752.492188 481.160156 M 752.410156 481.15625 C 752.390625 481.15625 752.371094 481.15625 752.347656 481.15625 C 752.371094 481.15625 752.390625 481.15625 752.410156 481.15625 M 752.335938 481.15625 C 752.3125 481.15625 752.285156 481.15625 752.261719 481.15625 C 752.285156 481.15625 752.3125 481.15625 752.335938 481.15625 M 752.234375 481.15625 C 752.21875 481.15625 752.199219 481.15625 752.183594 481.15625 C 752.199219 481.15625 752.21875 481.15625 752.234375 481.15625 M 752.15625 481.15625 C 752.136719 481.15625 752.117188 481.15625 752.097656 481.152344 C 752.117188 481.15625 752.136719 481.15625 752.15625 481.15625 M 752.082031 481.152344 C 752.058594 481.152344 752.03125 481.152344 752.007812 481.152344 C 752.03125 481.152344 752.058594 481.152344 752.082031 481.152344 M 751.984375 481.152344 C 751.96875 481.152344 751.949219 481.152344 751.929688 481.152344 C 751.949219 481.152344 751.964844 481.152344 751.984375 481.152344 M 751.902344 481.148438 C 751.886719 481.148438 751.867188 481.148438 751.847656 481.148438 C 751.867188 481.148438 751.882812 481.148438 751.902344 481.148438 M 751.828125 481.148438 C 751.804688 481.148438 751.777344 481.148438 751.753906 481.148438 C 751.777344 481.148438 751.804688 481.148438 751.828125 481.148438 M 751.734375 481.144531 C 751.714844 481.144531 751.695312 481.144531 751.675781 481.144531 C 751.695312 481.144531 751.714844 481.144531 751.734375 481.144531 M 751.652344 481.144531 C 751.632812 481.144531 751.613281 481.144531 751.59375 481.144531 C 751.617188 481.144531 751.632812 481.144531 751.652344 481.144531 M 751.574219 481.144531 C 751.550781 481.144531 751.527344 481.144531 751.503906 481.144531 C 751.527344 481.144531 751.550781 481.144531 751.574219 481.144531 M 751.480469 481.140625 C 751.464844 481.140625 751.441406 481.140625 751.425781 481.140625 C 751.445312 481.140625 751.460938 481.140625 751.480469 481.140625 M 751.398438 481.140625 C 751.378906 481.140625 751.363281 481.140625 751.34375 481.136719 C 751.363281 481.140625 751.378906 481.140625 751.398438 481.140625 M 751.324219 481.136719 C 751.296875 481.136719 751.277344 481.136719 751.25 481.136719 C 751.277344 481.136719 751.300781 481.136719 751.324219 481.136719 M 751.226562 481.136719 C 751.210938 481.132812 751.191406 481.132812 751.175781 481.132812 C 751.191406 481.132812 751.207031 481.132812 751.226562 481.136719 M 751.144531 481.132812 C 751.128906 481.132812 751.109375 481.132812 751.09375 481.132812 C 751.109375 481.132812 751.128906 481.132812 751.144531 481.132812 M 751.070312 481.132812 C 751.046875 481.132812 751.023438 481.132812 751 481.128906 C 751.019531 481.132812 751.050781 481.132812 751.070312 481.132812 M 750.972656 481.128906 C 750.957031 481.128906 750.941406 481.128906 750.925781 481.128906 C 750.9375 481.128906 750.957031 481.128906 750.972656 481.128906 M 750.890625 481.125 C 750.875 481.125 750.863281 481.125 750.847656 481.125 C 750.859375 481.125 750.878906 481.125 750.890625 481.125 M 750.816406 481.125 C 750.792969 481.125 750.769531 481.121094 750.746094 481.121094 C 750.769531 481.121094 750.796875 481.125 750.816406 481.125 M 750.71875 481.121094 C 750.703125 481.121094 750.6875 481.121094 750.671875 481.121094 C 750.6875 481.121094 750.703125 481.121094 750.71875 481.121094 M 750.640625 481.121094 C 750.625 481.121094 750.609375 481.117188 750.59375 481.117188 C 750.609375 481.117188 750.625 481.121094 750.640625 481.121094 M 750.566406 481.117188 C 750.542969 481.117188 750.519531 481.117188 750.496094 481.113281 C 750.515625 481.117188 750.542969 481.117188 750.566406 481.117188 M 750.464844 481.113281 C 750.449219 481.113281 750.4375 481.113281 750.421875 481.113281 C 750.433594 481.113281 750.453125 481.113281 750.464844 481.113281 M 750.386719 481.109375 C 750.371094 481.109375 750.359375 481.109375 750.34375 481.109375 C 750.359375 481.109375 750.371094 481.109375 750.386719 481.109375 M 750.3125 481.109375 C 750.292969 481.109375 750.277344 481.109375 750.261719 481.105469 C 750.277344 481.109375 750.296875 481.109375 750.3125 481.109375 M 750.207031 481.105469 C 750.195312 481.105469 750.183594 481.105469 750.171875 481.101562 C 750.183594 481.105469 750.195312 481.105469 750.207031 481.105469 M 750.132812 481.101562 C 750.121094 481.101562 750.109375 481.101562 750.09375 481.101562 C 750.109375 481.101562 750.117188 481.101562 750.132812 481.101562 M 750.058594 481.097656 C 750.035156 481.097656 750.019531 481.097656 749.996094 481.097656 C 750.015625 481.097656 750.039062 481.097656 750.058594 481.097656 M 749.960938 481.097656 C 749.945312 481.09375 749.929688 481.09375 749.917969 481.09375 C 749.933594 481.09375 749.945312 481.09375 749.960938 481.097656 M 749.882812 481.09375 C 749.867188 481.09375 749.855469 481.089844 749.84375 481.089844 C 749.855469 481.089844 749.867188 481.09375 749.882812 481.09375 M 749.808594 481.089844 C 749.789062 481.089844 749.773438 481.085938 749.757812 481.085938 C 749.773438 481.085938 749.792969 481.089844 749.808594 481.089844 M 749.707031 481.085938 C 749.695312 481.085938 749.679688 481.085938 749.667969 481.085938 C 749.679688 481.085938 749.691406 481.085938 749.707031 481.085938 M 749.628906 481.082031 C 749.617188 481.082031 749.605469 481.082031 749.59375 481.082031 C 749.605469 481.082031 749.617188 481.082031 749.628906 481.082031 M 749.554688 481.078125 C 749.539062 481.078125 749.523438 481.078125 749.507812 481.078125 C 749.523438 481.078125 749.539062 481.078125 749.554688 481.078125 M 749.457031 481.074219 C 749.441406 481.074219 749.429688 481.074219 749.417969 481.074219 C 749.429688 481.074219 749.441406 481.074219 749.457031 481.074219 M 749.378906 481.070312 C 749.363281 481.070312 749.355469 481.070312 749.34375 481.070312 C 749.355469 481.070312 749.363281 481.070312 749.378906 481.070312 M 749.304688 481.066406 C 749.292969 481.066406 749.28125 481.066406 749.269531 481.066406 C 749.28125 481.066406 749.289062 481.066406 749.304688 481.066406 M 749.199219 481.0625 C 749.1875 481.0625 749.175781 481.0625 749.167969 481.0625 C 749.175781 481.0625 749.1875 481.0625 749.199219 481.0625 M 749.125 481.058594 C 749.113281 481.058594 749.101562 481.058594 749.09375 481.058594 C 749.101562 481.058594 749.113281 481.058594 749.125 481.058594 M 749.054688 481.054688 C 749.039062 481.054688 749.03125 481.054688 749.019531 481.054688 C 749.03125 481.054688 749.042969 481.054688 749.054688 481.054688 M 748.941406 481.050781 C 748.929688 481.050781 748.929688 481.050781 748.917969 481.050781 C 748.925781 481.050781 748.933594 481.050781 748.941406 481.050781 M 748.867188 481.046875 C 748.863281 481.046875 748.851562 481.046875 748.84375 481.046875 C 748.851562 481.046875 748.863281 481.046875 748.867188 481.046875 M 748.800781 481.042969 C 748.789062 481.042969 748.785156 481.042969 748.773438 481.042969 C 748.78125 481.042969 748.792969 481.042969 748.800781 481.042969 M 748.6875 481.039062 C 748.679688 481.039062 748.671875 481.039062 748.664062 481.039062 C 748.671875 481.039062 748.683594 481.039062 748.6875 481.039062 M 748.617188 481.035156 C 748.609375 481.035156 748.605469 481.035156 748.59375 481.03125 C 748.601562 481.035156 748.613281 481.035156 748.617188 481.035156 M 748.546875 481.03125 C 748.539062 481.03125 748.535156 481.03125 748.523438 481.03125 C 748.53125 481.03125 748.539062 481.03125 748.546875 481.03125 M 748.429688 481.023438 C 748.425781 481.023438 748.421875 481.023438 748.414062 481.023438 C 748.417969 481.023438 748.425781 481.023438 748.429688 481.023438 M 748.367188 481.019531 C 748.359375 481.019531 748.351562 481.019531 748.34375 481.019531 C 748.351562 481.019531 748.359375 481.019531 748.367188 481.019531 M 748.296875 481.019531 C 748.289062 481.015625 748.285156 481.015625 748.28125 481.015625 C 748.285156 481.015625 748.292969 481.019531 748.296875 481.019531 M 748.171875 481.007812 C 748.167969 481.007812 748.167969 481.007812 748.164062 481.007812 L 748.171875 481.007812 M 748.113281 481.007812 C 748.105469 481.007812 748.101562 481.007812 748.097656 481.007812 C 748.105469 481.007812 748.105469 481.007812 748.113281 481.007812 M 748.042969 481.003906 C 748.042969 481.003906 748.035156 481.003906 748.03125 481.003906 C 748.035156 481.003906 748.039062 481.003906 748.042969 481.003906 M 747.859375 480.992188 C 747.855469 480.992188 747.851562 480.992188 747.847656 480.992188 C 747.851562 480.992188 747.855469 480.992188 747.859375 480.992188 M 747.792969 480.988281 C 747.789062 480.988281 747.785156 480.988281 747.78125 480.984375 C 747.785156 480.988281 747.789062 480.988281 747.792969 480.988281 M 747.609375 480.976562 C 747.601562 480.976562 747.601562 480.976562 747.597656 480.976562 C 747.601562 480.976562 747.605469 480.976562 747.609375 480.976562 M 747.542969 480.972656 C 747.539062 480.972656 747.535156 480.972656 747.53125 480.972656 C 747.535156 480.972656 747.539062 480.972656 747.542969 480.972656 M 747.355469 480.960938 C 747.355469 480.960938 747.351562 480.960938 747.347656 480.960938 C 747.351562 480.960938 747.351562 480.960938 747.355469 480.960938 M 747.289062 480.957031 C 747.289062 480.957031 747.285156 480.957031 747.285156 480.953125 C 747.289062 480.957031 747.285156 480.957031 747.289062 480.957031 M 747.101562 480.941406 L 747.101562 480.941406 M 747.039062 480.9375 L 747.035156 480.9375 L 747.039062 480.9375 M 732.882812 190.75 C 738.390625 182.03125 743.742188 173.425781 748.730469 165.234375 C 743.742188 173.425781 738.390625 182.03125 732.886719 190.75 M 748.757812 165.191406 C 748.777344 165.160156 748.792969 165.128906 748.8125 165.101562 C 748.792969 165.132812 748.777344 165.160156 748.757812 165.191406 M 748.820312 165.089844 C 748.84375 165.046875 748.867188 165.011719 748.890625 164.972656 C 748.867188 165.011719 748.84375 165.046875 748.820312 165.089844 M 748.90625 164.949219 C 748.929688 164.910156 748.953125 164.875 748.972656 164.835938 C 748.949219 164.875 748.929688 164.910156 748.90625 164.949219 M 748.972656 164.832031 C 749 164.789062 749.027344 164.75 749.050781 164.710938 C 749.027344 164.75 749 164.792969 748.972656 164.832031 M 749.058594 164.695312 C 749.367188 164.191406 749.671875 163.683594 749.976562 163.183594 C 749.671875 163.683594 749.367188 164.191406 749.058594 164.695312 M 749.984375 163.171875 C 750.183594 162.839844 750.386719 162.507812 750.585938 162.179688 C 750.386719 162.511719 750.1875 162.839844 749.984375 163.171875 M 750.601562 162.15625 C 750.699219 161.992188 750.796875 161.828125 750.894531 161.667969 C 750.796875 161.828125 750.699219 161.992188 750.601562 162.15625 M 750.90625 161.648438 C 750.953125 161.570312 751 161.496094 751.046875 161.417969 C 751 161.496094 750.953125 161.574219 750.90625 161.648438 M 751.058594 161.394531 C 751.082031 161.363281 751.101562 161.328125 751.121094 161.292969 C 751.101562 161.328125 751.082031 161.363281 751.058594 161.394531 M 751.132812 161.269531 C 751.15625 161.238281 751.175781 161.203125 751.199219 161.167969 C 751.175781 161.203125 751.15625 161.238281 751.132812 161.269531 M 751.222656 161.125 C 751.238281 161.097656 751.257812 161.070312 751.273438 161.046875 C 751.257812 161.070312 751.238281 161.097656 751.222656 161.125 M 751.285156 161.023438 C 751.308594 160.984375 751.332031 160.945312 751.351562 160.910156 C 751.332031 160.945312 751.308594 160.984375 751.285156 161.023438 M 751.367188 160.886719 C 751.386719 160.851562 751.40625 160.820312 751.425781 160.789062 C 751.40625 160.820312 751.386719 160.851562 751.367188 160.886719 M 751.4375 160.765625 C 751.484375 160.6875 751.53125 160.609375 751.578125 160.535156 C 751.53125 160.613281 751.488281 160.6875 751.4375 160.765625 M 751.589844 160.515625 C 751.613281 160.480469 751.632812 160.445312 751.65625 160.410156 C 751.632812 160.445312 751.613281 160.480469 751.589844 160.515625 M 751.660156 160.398438 C 751.710938 160.320312 751.757812 160.238281 751.804688 160.160156 C 751.753906 160.242188 751.710938 160.316406 751.660156 160.398438 M 751.8125 160.144531 C 751.863281 160.066406 751.914062 159.984375 751.960938 159.902344 C 751.914062 159.984375 751.863281 160.066406 751.8125 160.144531 M 751.960938 159.902344 C 752.011719 159.820312 752.058594 159.742188 752.105469 159.660156 C 752.058594 159.738281 752.007812 159.820312 751.960938 159.902344 M 752.117188 159.640625 C 752.140625 159.605469 752.164062 159.566406 752.183594 159.527344 C 752.164062 159.570312 752.140625 159.601562 752.117188 159.640625 M 752.1875 159.523438 C 752.210938 159.484375 752.234375 159.445312 752.257812 159.40625 C 752.234375 159.445312 752.210938 159.484375 752.1875 159.523438 M 752.265625 159.390625 C 752.289062 159.355469 752.3125 159.320312 752.335938 159.28125 C 752.3125 159.320312 752.289062 159.355469 752.265625 159.390625 M 752.339844 159.273438 C 752.363281 159.234375 752.386719 159.199219 752.40625 159.160156 C 752.386719 159.199219 752.363281 159.234375 752.339844 159.273438 M 752.425781 159.128906 C 752.441406 159.097656 752.460938 159.070312 752.476562 159.042969 C 752.460938 159.070312 752.445312 159.097656 752.425781 159.128906 M 752.496094 159.011719 C 752.542969 158.9375 752.585938 158.863281 752.632812 158.789062 C 752.585938 158.863281 752.542969 158.9375 752.496094 159.011719 M 752.644531 158.769531 C 752.664062 158.734375 752.679688 158.703125 752.703125 158.671875 C 752.679688 158.703125 752.664062 158.734375 752.644531 158.769531 M 752.714844 158.648438 C 752.761719 158.574219 752.804688 158.496094 752.851562 158.421875 C 752.804688 158.496094 752.761719 158.574219 752.714844 158.648438 M 752.867188 158.394531 C 752.886719 158.363281 752.90625 158.328125 752.925781 158.296875 C 752.90625 158.328125 752.886719 158.363281 752.867188 158.394531 M 752.953125 158.25 C 752.964844 158.230469 752.980469 158.207031 752.996094 158.183594 C 752.980469 158.203125 752.964844 158.230469 752.953125 158.25 M 753.023438 158.132812 C 753.039062 158.109375 753.054688 158.082031 753.070312 158.058594 C 753.054688 158.082031 753.039062 158.109375 753.023438 158.132812 M 753.089844 158.023438 C 753.109375 157.992188 753.128906 157.957031 753.148438 157.925781 C 753.128906 157.957031 753.109375 157.992188 753.089844 158.023438 M 753.167969 157.898438 C 753.1875 157.863281 753.207031 157.828125 753.226562 157.792969 C 753.207031 157.828125 753.1875 157.863281 753.167969 157.898438 M 753.234375 157.785156 C 753.257812 157.746094 753.277344 157.707031 753.300781 157.671875 C 753.277344 157.710938 753.257812 157.746094 753.234375 157.785156 M 753.316406 157.644531 C 753.335938 157.613281 753.355469 157.582031 753.375 157.550781 C 753.355469 157.578125 753.335938 157.613281 753.316406 157.644531 M 753.382812 157.535156 C 753.40625 157.496094 753.425781 157.460938 753.449219 157.421875 C 753.425781 157.460938 753.40625 157.496094 753.382812 157.535156 M 753.464844 157.398438 C 753.484375 157.367188 753.5 157.339844 753.515625 157.3125 C 753.5 157.339844 753.484375 157.367188 753.464844 157.398438 M 753.539062 157.277344 C 753.558594 157.238281 753.582031 157.203125 753.601562 157.167969 C 753.582031 157.203125 753.558594 157.238281 753.539062 157.277344 "/></g><g clip-rule="nonzero" clip-path="url(#caf7e22187)"><path style=" stroke:none;fill-rule:nonzero;fill:#70acfc;fill-opacity:1;" d="M 753.601562 481.167969 C 753.578125 481.167969 753.550781 481.167969 753.527344 481.167969 C 753.515625 481.164062 753.511719 481.164062 753.503906 481.164062 C 753.480469 481.164062 753.46875 481.164062 753.449219 481.164062 C 753.441406 481.164062 753.429688 481.164062 753.421875 481.164062 C 753.375 481.164062 753.324219 481.164062 753.273438 481.164062 C 753.265625 481.164062 753.257812 481.164062 753.25 481.164062 C 753.230469 481.164062 753.210938 481.164062 753.195312 481.164062 C 753.1875 481.164062 753.179688 481.164062 753.171875 481.164062 C 753.148438 481.164062 753.121094 481.164062 753.097656 481.164062 L 753.09375 481.164062 C 753.070312 481.164062 753.042969 481.164062 753.019531 481.164062 C 753.011719 481.164062 753.003906 481.164062 752.996094 481.164062 C 752.976562 481.164062 752.964844 481.164062 752.941406 481.164062 C 752.933594 481.164062 752.925781 481.164062 752.917969 481.164062 C 752.894531 481.164062 752.871094 481.164062 752.851562 481.164062 C 752.847656 481.164062 752.84375 481.164062 752.839844 481.164062 C 752.816406 481.164062 752.789062 481.160156 752.765625 481.160156 C 752.757812 481.160156 752.753906 481.160156 752.746094 481.160156 C 752.726562 481.160156 752.707031 481.160156 752.6875 481.160156 C 752.679688 481.160156 752.671875 481.160156 752.667969 481.160156 C 752.640625 481.160156 752.621094 481.160156 752.59375 481.160156 C 752.589844 481.160156 752.589844 481.160156 752.589844 481.160156 C 752.566406 481.160156 752.535156 481.160156 752.511719 481.160156 C 752.503906 481.160156 752.5 481.160156 752.492188 481.160156 C 752.472656 481.15625 752.457031 481.15625 752.433594 481.15625 C 752.429688 481.15625 752.417969 481.15625 752.410156 481.15625 C 752.390625 481.15625 752.371094 481.15625 752.347656 481.15625 C 752.34375 481.15625 752.339844 481.15625 752.335938 481.15625 C 752.3125 481.15625 752.285156 481.15625 752.261719 481.15625 C 752.253906 481.15625 752.242188 481.15625 752.234375 481.15625 C 752.21875 481.15625 752.199219 481.15625 752.183594 481.15625 C 752.175781 481.15625 752.164062 481.15625 752.15625 481.15625 C 752.136719 481.15625 752.117188 481.15625 752.097656 481.152344 C 752.089844 481.152344 752.085938 481.152344 752.082031 481.152344 C 752.058594 481.152344 752.03125 481.152344 752.007812 481.152344 C 752 481.152344 751.992188 481.152344 751.984375 481.152344 C 751.964844 481.152344 751.949219 481.152344 751.929688 481.152344 C 751.921875 481.152344 751.914062 481.152344 751.902344 481.148438 C 751.882812 481.148438 751.867188 481.148438 751.847656 481.148438 C 751.839844 481.148438 751.835938 481.148438 751.828125 481.148438 C 751.804688 481.148438 751.777344 481.148438 751.753906 481.148438 C 751.746094 481.148438 751.738281 481.148438 751.734375 481.144531 C 751.714844 481.144531 751.695312 481.144531 751.675781 481.144531 C 751.667969 481.144531 751.660156 481.144531 751.652344 481.144531 C 751.632812 481.144531 751.617188 481.144531 751.59375 481.144531 C 751.589844 481.144531 751.582031 481.144531 751.574219 481.144531 C 751.550781 481.144531 751.527344 481.144531 751.503906 481.144531 C 751.496094 481.144531 751.488281 481.140625 751.480469 481.140625 C 751.460938 481.140625 751.445312 481.140625 751.425781 481.140625 C 751.414062 481.140625 751.410156 481.140625 751.398438 481.140625 C 751.378906 481.140625 751.363281 481.140625 751.34375 481.136719 C 751.335938 481.136719 751.328125 481.136719 751.324219 481.136719 C 751.300781 481.136719 751.277344 481.136719 751.25 481.136719 C 751.242188 481.136719 751.234375 481.136719 751.226562 481.136719 C 751.207031 481.132812 751.191406 481.132812 751.175781 481.132812 C 751.164062 481.132812 751.15625 481.132812 751.144531 481.132812 C 751.128906 481.132812 751.109375 481.132812 751.09375 481.132812 C 751.085938 481.132812 751.078125 481.132812 751.070312 481.132812 C 751.050781 481.132812 751.019531 481.132812 751 481.128906 C 750.988281 481.128906 750.980469 481.128906 750.972656 481.128906 C 750.957031 481.128906 750.9375 481.128906 750.925781 481.128906 C 750.914062 481.128906 750.902344 481.128906 750.890625 481.125 C 750.878906 481.125 750.859375 481.125 750.847656 481.125 C 750.839844 481.125 750.824219 481.125 750.816406 481.125 C 750.796875 481.125 750.769531 481.121094 750.746094 481.121094 C 750.738281 481.121094 750.730469 481.121094 750.71875 481.121094 C 750.703125 481.121094 750.6875 481.121094 750.671875 481.121094 C 750.660156 481.121094 750.648438 481.121094 750.640625 481.121094 C 750.625 481.121094 750.609375 481.117188 750.59375 481.117188 C 750.585938 481.117188 750.574219 481.117188 750.566406 481.117188 C 750.542969 481.117188 750.515625 481.117188 750.496094 481.113281 C 750.484375 481.113281 750.476562 481.113281 750.464844 481.113281 C 750.453125 481.113281 750.433594 481.113281 750.421875 481.113281 C 750.410156 481.109375 750.398438 481.109375 750.386719 481.109375 C 750.371094 481.109375 750.359375 481.109375 750.34375 481.109375 C 750.335938 481.109375 750.320312 481.109375 750.3125 481.109375 C 750.296875 481.109375 750.277344 481.109375 750.261719 481.105469 C 750.242188 481.105469 750.226562 481.105469 750.207031 481.105469 C 750.195312 481.105469 750.183594 481.105469 750.171875 481.101562 C 750.160156 481.101562 750.148438 481.101562 750.132812 481.101562 C 750.117188 481.101562 750.109375 481.101562 750.09375 481.101562 C 750.085938 481.097656 750.070312 481.097656 750.058594 481.097656 C 750.039062 481.097656 750.015625 481.097656 749.996094 481.097656 C 749.984375 481.097656 749.972656 481.097656 749.960938 481.097656 C 749.945312 481.09375 749.933594 481.09375 749.917969 481.09375 C 749.90625 481.09375 749.894531 481.09375 749.882812 481.09375 C 749.867188 481.09375 749.855469 481.089844 749.84375 481.089844 C 749.832031 481.089844 749.816406 481.089844 749.808594 481.089844 C 749.792969 481.089844 749.773438 481.085938 749.757812 481.085938 C 749.738281 481.085938 749.722656 481.085938 749.707031 481.085938 C 749.691406 481.085938 749.679688 481.085938 749.667969 481.085938 C 749.652344 481.082031 749.644531 481.082031 749.628906 481.082031 C 749.617188 481.082031 749.605469 481.082031 749.59375 481.082031 C 749.582031 481.082031 749.566406 481.078125 749.554688 481.078125 C 749.539062 481.078125 749.523438 481.078125 749.507812 481.078125 C 749.492188 481.074219 749.472656 481.074219 749.457031 481.074219 C 749.441406 481.074219 749.429688 481.074219 749.417969 481.074219 C 749.402344 481.074219 749.390625 481.074219 749.378906 481.070312 C 749.363281 481.070312 749.355469 481.070312 749.34375 481.070312 C 749.332031 481.070312 749.316406 481.070312 749.304688 481.066406 C 749.289062 481.066406 749.28125 481.066406 749.269531 481.066406 C 749.246094 481.066406 749.222656 481.066406 749.199219 481.0625 C 749.1875 481.0625 749.175781 481.0625 749.167969 481.0625 C 749.152344 481.0625 749.136719 481.0625 749.125 481.058594 C 749.113281 481.058594 749.101562 481.058594 749.09375 481.058594 C 749.078125 481.058594 749.066406 481.058594 749.054688 481.054688 C 749.042969 481.054688 749.03125 481.054688 749.019531 481.054688 C 748.996094 481.054688 748.964844 481.050781 748.941406 481.050781 C 748.933594 481.050781 748.925781 481.050781 748.917969 481.050781 C 748.902344 481.050781 748.886719 481.046875 748.867188 481.046875 C 748.863281 481.046875 748.851562 481.046875 748.84375 481.046875 C 748.832031 481.046875 748.8125 481.042969 748.800781 481.042969 C 748.792969 481.042969 748.78125 481.042969 748.773438 481.042969 C 748.746094 481.039062 748.71875 481.039062 748.6875 481.039062 C 748.683594 481.039062 748.671875 481.039062 748.664062 481.039062 C 748.652344 481.035156 748.632812 481.035156 748.617188 481.035156 C 748.613281 481.035156 748.601562 481.035156 748.59375 481.03125 C 748.582031 481.03125 748.5625 481.03125 748.546875 481.03125 C 748.539062 481.03125 748.53125 481.03125 748.523438 481.03125 C 748.496094 481.027344 748.460938 481.027344 748.429688 481.023438 C 748.425781 481.023438 748.417969 481.023438 748.414062 481.023438 C 748.398438 481.023438 748.382812 481.023438 748.367188 481.019531 C 748.359375 481.019531 748.351562 481.019531 748.34375 481.019531 C 748.328125 481.019531 748.3125 481.019531 748.296875 481.019531 C 748.292969 481.019531 748.285156 481.015625 748.28125 481.015625 C 748.246094 481.015625 748.207031 481.011719 748.171875 481.007812 L 748.164062 481.007812 C 748.148438 481.007812 748.128906 481.007812 748.113281 481.007812 C 748.105469 481.007812 748.105469 481.007812 748.097656 481.007812 C 748.078125 481.003906 748.0625 481.003906 748.042969 481.003906 C 748.039062 481.003906 748.035156 481.003906 748.03125 481.003906 C 747.976562 481 747.917969 480.996094 747.859375 480.992188 C 747.855469 480.992188 747.851562 480.992188 747.847656 480.992188 C 747.828125 480.988281 747.8125 480.988281 747.792969 480.988281 C 747.789062 480.988281 747.785156 480.988281 747.78125 480.984375 C 747.722656 480.984375 747.667969 480.980469 747.609375 480.976562 C 747.605469 480.976562 747.601562 480.976562 747.597656 480.976562 C 747.578125 480.972656 747.558594 480.972656 747.542969 480.972656 C 747.539062 480.972656 747.535156 480.972656 747.53125 480.972656 C 747.472656 480.96875 747.414062 480.964844 747.355469 480.960938 C 747.351562 480.960938 747.351562 480.960938 747.347656 480.960938 C 747.328125 480.957031 747.3125 480.957031 747.289062 480.957031 C 747.285156 480.957031 747.289062 480.957031 747.285156 480.953125 C 747.226562 480.949219 747.164062 480.949219 747.101562 480.941406 C 747.078125 480.941406 747.058594 480.9375 747.039062 480.9375 L 747.035156 480.9375 C 706.464844 478.121094 672.171875 449.382812 657.242188 409.351562 C 673.109375 426.738281 694.839844 437.460938 718.8125 437.460938 C 767.398438 437.460938 806.789062 393.417969 806.789062 339.082031 C 806.789062 304.640625 788.214844 272.265625 770.453125 245.632812 C 759.148438 228.683594 744.742188 209.964844 732.882812 190.75 C 738.390625 182.03125 743.742188 173.425781 748.730469 165.234375 C 748.738281 165.21875 748.75 165.203125 748.757812 165.191406 C 748.777344 165.160156 748.792969 165.132812 748.8125 165.101562 C 748.8125 165.097656 748.816406 165.09375 748.820312 165.089844 C 748.84375 165.046875 748.867188 165.011719 748.890625 164.972656 C 748.894531 164.964844 748.898438 164.957031 748.90625 164.949219 C 748.929688 164.910156 748.949219 164.875 748.972656 164.835938 C 748.972656 164.832031 748.972656 164.832031 748.972656 164.832031 C 749 164.792969 749.027344 164.75 749.050781 164.710938 C 749.054688 164.703125 749.054688 164.703125 749.058594 164.695312 C 749.367188 164.191406 749.671875 163.683594 749.976562 163.183594 C 749.980469 163.175781 749.980469 163.175781 749.984375 163.171875 C 750.1875 162.839844 750.386719 162.511719 750.585938 162.179688 C 750.589844 162.171875 750.59375 162.164062 750.601562 162.15625 C 750.699219 161.992188 750.796875 161.828125 750.894531 161.667969 C 750.898438 161.664062 750.902344 161.65625 750.90625 161.648438 C 750.953125 161.574219 751 161.496094 751.046875 161.417969 C 751.050781 161.410156 751.054688 161.402344 751.058594 161.394531 C 751.082031 161.363281 751.101562 161.328125 751.121094 161.292969 C 751.125 161.285156 751.128906 161.28125 751.132812 161.269531 C 751.15625 161.238281 751.175781 161.203125 751.199219 161.167969 C 751.207031 161.152344 751.214844 161.140625 751.222656 161.125 C 751.238281 161.097656 751.257812 161.070312 751.273438 161.046875 C 751.277344 161.039062 751.28125 161.03125 751.285156 161.023438 C 751.308594 160.984375 751.332031 160.945312 751.351562 160.910156 C 751.359375 160.902344 751.363281 160.894531 751.367188 160.886719 C 751.386719 160.851562 751.40625 160.820312 751.425781 160.789062 C 751.429688 160.78125 751.4375 160.773438 751.4375 160.765625 C 751.488281 160.6875 751.53125 160.613281 751.578125 160.535156 C 751.582031 160.53125 751.585938 160.523438 751.589844 160.515625 C 751.613281 160.480469 751.632812 160.445312 751.65625 160.410156 C 751.65625 160.40625 751.660156 160.402344 751.660156 160.398438 C 751.710938 160.316406 751.753906 160.242188 751.804688 160.160156 C 751.808594 160.15625 751.8125 160.152344 751.8125 160.144531 C 751.863281 160.066406 751.914062 159.984375 751.960938 159.902344 C 752.007812 159.820312 752.058594 159.738281 752.105469 159.660156 C 752.109375 159.65625 752.113281 159.648438 752.117188 159.640625 C 752.140625 159.601562 752.164062 159.570312 752.183594 159.527344 C 752.1875 159.527344 752.1875 159.527344 752.1875 159.523438 C 752.210938 159.484375 752.234375 159.445312 752.257812 159.40625 C 752.261719 159.398438 752.265625 159.398438 752.265625 159.390625 C 752.289062 159.355469 752.3125 159.320312 752.335938 159.28125 C 752.335938 159.277344 752.339844 159.277344 752.339844 159.273438 C 752.363281 159.234375 752.386719 159.199219 752.40625 159.160156 C 752.414062 159.148438 752.417969 159.140625 752.425781 159.128906 C 752.445312 159.097656 752.460938 159.070312 752.476562 159.042969 C 752.484375 159.03125 752.488281 159.023438 752.496094 159.011719 C 752.542969 158.9375 752.585938 158.863281 752.632812 158.789062 C 752.636719 158.78125 752.640625 158.773438 752.644531 158.769531 C 752.664062 158.734375 752.679688 158.703125 752.703125 158.671875 C 752.707031 158.664062 752.710938 158.65625 752.714844 158.648438 C 752.761719 158.574219 752.804688 158.496094 752.851562 158.421875 C 752.855469 158.414062 752.863281 158.402344 752.867188 158.394531 C 752.886719 158.363281 752.90625 158.328125 752.925781 158.296875 C 752.933594 158.28125 752.941406 158.265625 752.953125 158.25 C 752.964844 158.230469 752.980469 158.203125 752.996094 158.183594 C 753.003906 158.164062 753.015625 158.148438 753.023438 158.132812 C 753.039062 158.109375 753.054688 158.082031 753.070312 158.058594 C 753.078125 158.042969 753.082031 158.035156 753.089844 158.023438 C 753.109375 157.992188 753.128906 157.957031 753.148438 157.925781 C 753.15625 157.914062 753.160156 157.90625 753.167969 157.898438 C 753.1875 157.863281 753.207031 157.828125 753.226562 157.792969 C 753.230469 157.792969 753.230469 157.785156 753.234375 157.785156 C 753.257812 157.746094 753.277344 157.710938 753.300781 157.671875 C 753.304688 157.664062 753.3125 157.652344 753.316406 157.644531 C 753.335938 157.613281 753.355469 157.578125 753.375 157.550781 C 753.375 157.546875 753.378906 157.539062 753.382812 157.535156 C 753.40625 157.496094 753.425781 157.460938 753.449219 157.421875 C 753.453125 157.414062 753.460938 157.40625 753.464844 157.398438 C 753.484375 157.367188 753.5 157.339844 753.515625 157.3125 C 753.523438 157.296875 753.53125 157.289062 753.539062 157.277344 C 753.558594 157.238281 753.582031 157.203125 753.601562 157.167969 C 768.054688 190.644531 795.351562 224.347656 814.863281 253.601562 C 835.933594 285.195312 857.964844 323.601562 857.964844 364.457031 C 857.964844 428.914062 811.242188 481.167969 753.601562 481.167969 "/></g><path style=" stroke:none;fill-rule:nonzero;fill:#f4f8f9;fill-opacity:1;" d="M 658.078125 383.835938 C 654.582031 360.390625 662.355469 339.800781 675.4375 337.851562 C 688.519531 335.902344 678.269531 356.859375 681.765625 380.308594 C 685.257812 403.753906 701.171875 420.816406 688.09375 422.765625 C 675.011719 424.714844 661.574219 407.285156 658.078125 383.835938 "/><path style=" stroke:none;fill-rule:nonzero;fill:#f4f8f9;fill-opacity:1;" d="M 689.71875 319.167969 C 689.71875 312.816406 684.574219 307.667969 678.222656 307.667969 C 671.871094 307.667969 666.726562 312.816406 666.726562 319.167969 C 666.726562 325.519531 671.871094 330.664062 678.222656 330.664062 C 684.574219 330.664062 689.71875 325.519531 689.71875 319.167969 "/></g></svg>