<?xml version="1.0" encoding="UTF-8"?>
<svg id="Layer_1" data-name="Layer 1" xmlns="http://www.w3.org/2000/svg" xmlns:xlink="http://www.w3.org/1999/xlink" viewBox="0 0 726.67 698.13">
  <defs>
    <style>
      .cls-1 {
        fill: none;
      }

      .cls-2 {
        fill: #f4f8f9;
      }

      .cls-3 {
        fill: #f4f4f4;
      }

      .cls-4 {
        fill: #e1f5fd;
      }

      .cls-5 {
        clip-path: url(#clippath-1);
      }

      .cls-6 {
        clip-path: url(#clippath-3);
      }

      .cls-7 {
        clip-path: url(#clippath-4);
      }

      .cls-8 {
        clip-path: url(#clippath-2);
      }

      .cls-9 {
        fill: #70acfc;
      }

      .cls-10 {
        clip-path: url(#clippath);
      }
    </style>
    <clipPath id="clippath">
      <rect class="cls-1" x="372" y="277.11" width="354.67" height="421.02"/>
    </clipPath>
    <clipPath id="clippath-1">
      <rect class="cls-1" y="277.11" width="354.67" height="421.02"/>
    </clipPath>
    <clipPath id="clippath-2">
      <rect class="cls-1" x="224.17" y=".01" width="278.5" height="432"/>
    </clipPath>
    <clipPath id="clippath-3">
      <rect class="cls-1" x="334.67" y=".01" width="168" height="432"/>
    </clipPath>
    <clipPath id="clippath-4">
      <rect class="cls-1" x="234.67" y=".01" width="268" height="432"/>
    </clipPath>
  </defs>
  <g id="_58562f99c9" data-name="58562f99c9">
    <path class="cls-9" d="M669.09,301.13c-21.78,38.24-48.78,81.85-48.81,81.9-8.83-7.47-23.04-8.32-38.66,3.53-9.18,6.97-62.88,56.05-88.73,69.51-31.25,16.24-67.49,8.74-97.48,37.49-27.15,26.01-21.26,82.49-11.25,103.74,8.4,17.83,17.88,78.38,20.71,97.39h128.96c-4.42-16.24-15.79-63.79-9.69-104.27,2.76-18.31,53.76-59.76,106.86-107.8,19.68-17.81,83.36-150.9,89.98-168.72,12.19-32.81-31.9-47.84-51.88-12.77"/>
    <g class="cls-10">
      <path class="cls-3" d="M669.09,301.13l-2.87-1.64c-10.86,19.08-23.05,39.53-32.52,55.2-4.73,7.83-8.78,14.48-11.66,19.17-1.43,2.34-2.58,4.2-3.36,5.47-.39.63-.69,1.12-.9,1.45l-.23.37-.06.09-.02.03h0v.02l-.03.05,2.84,1.68,2.13-2.52c-4.68-3.97-10.76-6.31-17.54-6.3-7.82,0-16.46,3.04-25.25,9.72-1.27.95-3.11,2.49-5.53,4.55-8.43,7.15-23.57,20.45-39.44,33.42-7.92,6.48-16.02,12.88-23.51,18.36-7.48,5.49-14.39,10.07-19.79,12.87-14.95,7.79-31.48,9.98-48.41,13.76-8.46,1.9-16.99,4.21-25.4,7.94-8.39,3.72-16.64,8.88-24.43,16.34-7.8,7.48-12.95,17.19-16.16,27.69-3.21,10.51-4.49,21.85-4.49,32.79,0,9.44.96,18.58,2.52,26.67,1.55,8.08,3.7,15.1,6.18,20.38,1.91,4.05,4.08,11.08,6.16,19.46,6.28,25.19,12.16,62.8,14.27,77.01.24,1.62,1.64,2.81,3.27,2.81h128.96c1.02,0,2-.48,2.62-1.3.63-.82.83-1.89.57-2.88-3.49-12.76-11.34-45.36-11.33-78.11,0-8.37.51-16.75,1.72-24.79.24-1.64,1.15-3.98,2.79-6.73,2.85-4.84,7.84-10.95,14.42-17.91,19.76-20.93,53.71-49.65,88.61-81.2,2.85-2.6,6.04-6.75,9.76-12.23,6.48-9.58,14.38-23.18,22.71-38.51,12.51-22.98,25.98-49.81,36.89-72.37,5.45-11.28,10.27-21.49,13.98-29.63,3.73-8.15,6.35-14.16,7.52-17.29,1.57-4.2,2.31-8.23,2.31-11.99.02-7.64-3.11-14.15-8.06-18.54-4.94-4.41-11.58-6.8-18.65-6.8-5.93,0-12.16,1.68-17.98,5.26-5.81,3.57-11.2,9.03-15.46,16.52l5.74,3.27c3.77-6.63,8.37-11.21,13.18-14.17,4.82-2.95,9.85-4.28,14.53-4.28,5.58,0,10.64,1.89,14.24,5.11,3.59,3.25,5.83,7.76,5.85,13.63,0,2.89-.57,6.13-1.89,9.69-.77,2.07-2.48,6.09-4.88,11.44-8.41,18.75-25.36,54.11-42.31,86.65-8.47,16.27-16.96,31.85-24.37,44.28-3.7,6.21-7.13,11.64-10.14,15.95-2.98,4.3-5.6,7.5-7.41,9.11-26.52,24-52.54,46.36-72.36,65.1-9.92,9.38-18.28,17.84-24.43,25.23-3.07,3.69-5.6,7.12-7.49,10.32-1.88,3.2-3.17,6.17-3.63,9.1-1.28,8.44-1.8,17.15-1.8,25.78.01,33.78,8.01,66.76,11.57,79.85l3.18-.87v-3.3h-128.96v3.3l3.27-.48c-1.42-9.54-4.51-29.46-8.3-49.28-1.89-9.91-3.95-19.79-6.09-28.36-2.15-8.59-4.31-15.81-6.59-20.68-2.16-4.55-4.21-11.15-5.68-18.82-1.48-7.67-2.39-16.42-2.39-25.41,0-10.42,1.23-21.15,4.2-30.86,2.96-9.71,7.64-18.36,14.41-24.85,7.2-6.9,14.74-11.6,22.55-15.07,11.71-5.2,24.08-7.58,36.65-10.15,12.56-2.59,25.31-5.39,37.53-11.73,6.77-3.52,15.05-9.18,23.94-15.84,13.32-9.98,27.95-22.2,40.13-32.58,6.08-5.19,11.55-9.91,15.92-13.66,4.35-3.74,7.65-6.55,9.22-7.73,7.92-6.01,15.19-8.37,21.26-8.37,5.28.01,9.74,1.76,13.27,4.73.74.63,1.73.91,2.69.74.95-.16,1.8-.74,2.29-1.57l-2.8-1.66,2.78,1.7.03-.04-2.8-1.66,2.78,1.7c.13-.2,27.09-43.75,48.86-81.99l-2.88-1.64"/>
    </g>
    <path class="cls-9" d="M620.29,383.03s34.91,35.49-92.8,116.74"/>
    <path class="cls-3" d="M617.93,385.35l.85-.83-.88.8.03.03.85-.83-.88.8c.05.05.91,1.01,1.76,2.89.84,1.88,1.69,4.69,1.69,8.58,0,7.55-3.22,19.42-16.86,36.09-13.64,16.65-37.67,37.96-78.77,64.1-1.54.98-1.98,3.02-1.01,4.56.97,1.54,3.02,1.99,4.56,1.02,41.47-26.4,66.02-48.05,80.33-65.49,14.28-17.43,18.36-30.78,18.36-40.28.01-5.18-1.22-9.14-2.5-11.8-1.28-2.68-2.61-4.07-2.81-4.28-1.28-1.3-3.37-1.31-4.67-.03-1.3,1.27-1.32,3.36-.05,4.67"/>
    <path class="cls-9" d="M57.87,301.13c21.78,38.24,48.79,81.85,48.81,81.9,8.83-7.47,23.05-8.32,38.66,3.53,9.18,6.97,62.88,56.05,88.73,69.51,31.25,16.24,67.49,8.74,97.49,37.49,27.14,26.01,21.24,82.49,11.24,103.74-8.39,17.83-17.88,78.38-20.71,97.39h-128.95c4.43-16.24,15.8-63.79,9.69-104.27-2.77-18.31-53.76-59.76-106.86-107.8-19.68-17.81-83.36-150.9-89.98-168.72-12.19-32.81,31.9-47.84,51.88-12.77"/>
    <g class="cls-5">
      <path class="cls-3" d="M57.87,301.13l-2.87,1.64c10.91,19.16,23.12,39.64,32.6,55.35,4.75,7.85,8.81,14.51,11.69,19.2,1.44,2.35,2.58,4.21,3.36,5.49.4.64.7,1.11.9,1.45l.23.38.06.1.02.02h0s.94-.57.94-.57l-.94.58.94-.58-.94.58,2.72-1.68-2.74,1.65.02.03,2.72-1.68-2.74,1.65c.51.83,1.34,1.4,2.3,1.55.95.17,1.92-.11,2.66-.74,3.54-2.97,7.99-4.72,13.28-4.73,6.07,0,13.34,2.36,21.26,8.38,1.03.78,2.87,2.3,5.24,4.32,8.35,7.08,23.57,20.44,39.53,33.5,7.98,6.54,16.16,12.99,23.8,18.58,7.64,5.59,14.71,10.31,20.64,13.4,16.3,8.45,33.51,10.63,50.02,14.35,8.27,1.85,16.35,4.07,24.16,7.53,7.81,3.46,15.34,8.17,22.55,15.07,6.78,6.49,11.44,15.15,14.41,24.85,2.96,9.71,4.21,20.44,4.2,30.86,0,8.99-.91,17.74-2.39,25.41-1.47,7.67-3.53,14.27-5.67,18.82-2.29,4.86-4.45,12.09-6.6,20.68-6.4,25.69-12.26,63.33-14.4,77.64l3.27.48v-3.3h-128.95v3.3l3.19.87c3.56-13.09,11.55-46.07,11.56-79.85,0-8.64-.52-17.34-1.8-25.78-.45-2.94-1.74-5.91-3.63-9.1-3.31-5.59-8.55-11.92-15.31-19.08-20.24-21.42-54.16-50.07-88.97-81.57-2.06-1.85-5.18-5.76-8.73-11.04-6.26-9.24-14.1-22.74-22.37-37.95-12.43-22.84-25.88-49.59-36.76-72.08-5.43-11.24-10.22-21.43-13.92-29.51-3.69-8.07-6.31-14.1-7.33-16.84-1.33-3.56-1.9-6.8-1.9-9.69.03-5.86,2.27-10.38,5.87-13.63,3.59-3.22,8.65-5.11,14.23-5.11,4.68,0,9.71,1.33,14.53,4.28,4.81,2.96,9.41,7.54,13.18,14.17l5.74-3.27c-4.27-7.49-9.65-12.95-15.46-16.52-5.82-3.58-12.06-5.26-17.98-5.26-7.06,0-13.7,2.39-18.65,6.8-4.95,4.4-8.08,10.91-8.06,18.54,0,3.76.74,7.79,2.31,11.99.89,2.39,2.61,6.43,5.04,11.83,8.49,18.92,25.45,54.32,42.48,87,8.51,16.34,17.04,32.01,24.55,44.6,3.76,6.31,7.26,11.84,10.4,16.34,3.16,4.51,5.89,7.95,8.4,10.24,26.59,24.06,52.62,46.43,72.26,65,9.82,9.28,18.05,17.61,23.9,24.65,2.92,3.51,5.24,6.7,6.88,9.46,1.64,2.76,2.55,5.09,2.79,6.73,1.21,8.04,1.73,16.42,1.73,24.79,0,32.75-7.85,65.35-11.34,78.11-.28.99-.06,2.06.56,2.88.61.82,1.6,1.3,2.62,1.3h128.95c1.64,0,3.03-1.19,3.27-2.81,1.41-9.48,4.49-29.34,8.24-49.01,1.89-9.83,3.93-19.62,6.02-28.01,2.08-8.38,4.25-15.41,6.17-19.46,2.48-5.27,4.62-12.29,6.18-20.38,1.56-8.09,2.51-17.23,2.51-26.67,0-10.94-1.28-22.28-4.49-32.79-3.2-10.5-8.34-20.21-16.15-27.69-7.78-7.46-16.04-12.62-24.44-16.34-12.6-5.58-25.51-8.01-37.99-10.58-12.51-2.57-24.59-5.28-35.82-11.12-6.16-3.2-14.29-8.72-23.02-15.27-13.12-9.83-27.68-21.98-39.8-32.31-6.06-5.17-11.53-9.9-15.91-13.65-4.4-3.77-7.65-6.55-9.54-7.97-8.79-6.68-17.43-9.72-25.25-9.72-6.78-.01-12.86,2.33-17.54,6.3l2.14,2.52,2.83-1.7-.02-.03c-.13-.22-27.06-43.71-48.75-81.81l-2.88,1.64"/>
    </g>
    <path class="cls-9" d="M106.68,383.03s-34.9,35.49,92.8,116.74"/>
    <path class="cls-3" d="M104.32,380.71c-.2.21-1.52,1.6-2.8,4.28-1.28,2.67-2.5,6.63-2.5,11.8,0,9.49,4.07,22.85,18.36,40.28,14.3,17.44,38.85,39.09,80.33,65.49,1.54.98,3.58.52,4.56-1.02.97-1.54.53-3.58-1.02-4.56-41.09-26.14-65.13-47.45-78.77-64.1-13.65-16.67-16.86-28.54-16.86-36.09,0-4.15.95-7.07,1.85-8.95.45-.94.89-1.61,1.19-2.03.16-.21.27-.35.34-.43l.06-.07-.88-.81.85.84.03-.03-.88-.81.85.84c1.28-1.31,1.27-3.4-.04-4.67-1.3-1.28-3.39-1.27-4.67.03"/>
    <g class="cls-8">
      <path class="cls-9" d="M502.62,276.39c0,85.94-62.3,155.61-139.15,155.61s-139.15-69.67-139.15-155.62c0-55.83,30.35-107.51,59.01-150.66,25.11-37.82,56.66-86.5,80.14-125.72,19.27,44.64,55.67,89.57,81.68,128.58,28.09,42.13,57.47,93.33,57.47,147.81"/>
    </g>
    <g class="cls-6">
      <path class="cls-4" d="M363.47,432h-.1.1c76.85,0,139.15-69.67,139.15-155.61,0,85.94-62.3,155.61-139.15,155.61M363.34,431.99h-.07.07M363.23,431.99h-.2.2M363,431.99h-.07.07M362.9,431.99h-.1.1M362.79,431.99h-.1.1M362.66,431.99h-.07.07M362.56,431.99h-.09.09M362.45,431.99s-.07,0-.1,0c.03,0,.07,0,.1,0M362.33,431.99h-.08.08M362.22,431.99h-.1.1M362.12,431.99h-.1.1M361.99,431.99s-.05,0-.08,0c.03,0,.05,0,.08,0M361.88,431.98h-.08.08M361.78,431.98h-.1.1M361.65,431.98h-.07.07M361.54,431.98s-.05,0-.08,0c.03,0,.05,0,.08,0M361.44,431.98h-.1.1M361.31,431.98h-.07.07M361.2,431.97h-.07.07M361.1,431.97h-.1.1M360.98,431.97h-.08.08M360.87,431.97h-.08.08M360.77,431.97h-.09.09M360.64,431.96h-.07.07M360.53,431.96s-.05,0-.07,0c.03,0,.05,0,.07,0M360.43,431.96h-.1.1M360.3,431.96s-.05,0-.07,0c.02,0,.04,0,.07,0M360.19,431.95h-.07.07M360.09,431.95s-.06,0-.09,0c.03,0,.07,0,.09,0M359.96,431.95h-.06.06M359.85,431.94h-.06.06M359.76,431.94s-.06,0-.09,0c.03,0,.07,0,.09,0M359.62,431.94h-.06.06M359.52,431.94s-.04,0-.06,0c.02,0,.04,0,.06,0M359.42,431.93s-.06,0-.09,0c.03,0,.06,0,.09,0M359.29,431.93h-.06.06M359.18,431.92h-.06.06M359.08,431.92s-.05,0-.07,0c.02,0,.05,0,.07,0M358.94,431.92s-.03,0-.05,0c.02,0,.03,0,.05,0M358.84,431.91h-.05.05M358.74,431.91h-.08.08M358.61,431.91s-.04,0-.06,0c.02,0,.04,0,.06,0M358.51,431.9s-.04,0-.05,0c.02,0,.03,0,.05,0M358.41,431.9s-.05,0-.07,0c.02,0,.05,0,.07,0M358.28,431.89h-.05.05M358.17,431.89h-.05.05M358.07,431.88h-.06.06M357.94,431.88h-.05.05M357.84,431.87h-.05.05M357.74,431.86h-.05.05M357.6,431.86h-.04.04M357.5,431.85h-.04.04M357.41,431.85h-.05.05M357.26,431.84h-.03.03M357.16,431.84h-.03.03M357.07,431.83h-.04.04M356.92,431.83h-.03.03M356.82,431.82s-.02,0-.03,0c.01,0,.03,0,.03,0M356.73,431.82h-.03.03M356.57,431.81h-.02.02M356.49,431.8h-.03.03M356.4,431.8s-.02,0-.02,0c0,0,.02,0,.02,0M356.23,431.79h-.01.01M356.15,431.79h-.02.02M356.06,431.78h-.02.02M355.81,431.77h-.02.02M355.72,431.76s-.01,0-.02,0c0,0,.01,0,.02,0M355.48,431.74h-.02.02M355.39,431.74h-.02.02M355.14,431.72h-.01.01M355.05,431.72s0,0,0,0c0,0,0,0,0,0M354.8,431.7h0M354.72,431.69h0,0M335.84,44.78c7.34-11.63,14.48-23.1,21.13-34.02-6.65,10.92-13.79,22.4-21.13,34.02M357.01,10.7s.05-.08.07-.12c-.03.04-.05.08-.07.12M357.09,10.56c.03-.06.06-.1.09-.16-.03.05-.06.1-.09.16M357.21,10.38c.03-.05.06-.1.09-.15-.03.05-.06.1-.09.15M357.3,10.22c.04-.06.07-.11.1-.16-.03.05-.07.11-.1.16M357.41,10.04c.41-.67.82-1.35,1.22-2.02-.41.67-.81,1.34-1.22,2.02M358.65,8.01c.27-.44.54-.89.8-1.32-.27.44-.53.88-.8,1.32M359.47,6.65c.13-.22.26-.44.39-.65-.13.21-.26.43-.39.65M359.87,5.97c.06-.1.13-.2.19-.31-.06.1-.13.21-.19.31M360.08,5.64s.06-.09.08-.14c-.03.05-.05.09-.08.14M360.18,5.47s.06-.09.09-.14c-.03.05-.06.09-.09.14M360.3,5.28s.05-.07.07-.1c-.02.03-.05.07-.07.1M360.38,5.14c.03-.05.06-.1.09-.15-.03.05-.06.1-.09.15M360.49,4.96s.05-.09.08-.13c-.03.04-.05.08-.08.13M360.58,4.8c.06-.1.13-.21.19-.31-.06.1-.12.2-.19.31M360.79,4.46s.06-.09.09-.14c-.03.05-.06.09-.09.14M360.88,4.31c.07-.1.13-.21.19-.32-.07.11-.13.21-.19.32M361.08,3.97c.07-.1.14-.21.2-.32-.06.11-.13.22-.2.32M361.28,3.65c.07-.11.13-.21.19-.32-.06.1-.13.21-.19.32M361.49,3.3s.06-.1.09-.15c-.03.06-.06.1-.09.15M361.58,3.14l.09-.16-.09.16M361.69,2.96s.06-.09.09-.15c-.03.05-.06.1-.09.15M361.79,2.81c.03-.05.06-.1.09-.15-.03.05-.06.1-.09.15M361.9,2.61s.05-.08.07-.11c-.02.04-.04.07-.07.11M361.99,2.46c.06-.1.12-.2.18-.3-.06.1-.12.2-.18.3M362.19,2.14s.05-.09.08-.13c-.03.04-.05.08-.08.13M362.29,1.97c.06-.1.12-.2.18-.3-.06.1-.12.2-.18.3M362.49,1.64s.05-.09.08-.13c-.03.04-.05.09-.08.13M362.6,1.44s.04-.06.06-.09c-.02.03-.04.06-.06.09M362.7,1.29s.04-.07.06-.1c-.02.03-.04.07-.06.1M362.79,1.14s.05-.09.08-.13c-.03.04-.05.09-.08.13M362.89.97l.08-.14-.08.14M362.98.82c.03-.05.06-.1.09-.15-.03.05-.06.1-.09.15M363.09.64l.08-.13s-.05.08-.08.13M363.18.49c.03-.05.06-.1.09-.15-.03.05-.06.1-.09.15M363.29.31s.05-.08.07-.11c-.02.04-.04.07-.07.11M363.39.15c.03-.05.06-.1.08-.15-.03.05-.06.09-.08.15"/>
    </g>
    <g class="cls-7">
      <path class="cls-9" d="M363.47,432h-.1s-.02,0-.03,0h-.89s-.07,0-.1,0h-.36s-.05,0-.08,0h-.37s-.05,0-.08,0h-.22s-.02,0-.04,0h-.2s-.02,0-.03,0h-.31s-.02,0-.03,0h-.11s-.05,0-.07,0h-.16s-.05,0-.07,0h-.14s-.07,0-.09,0h-.1s-.03,0-.05,0h-.1s-.06,0-.09,0h-.14s-.04,0-.06,0h-.04s-.07,0-.09,0h-.1s-.03,0-.05,0h-.1s-.05,0-.07,0h-.07s-.03,0-.05,0h-.1s-.03,0-.05,0h-.13s-.04,0-.06,0h-.05s-.04,0-.05,0h-.05s-.05,0-.07,0h-.12s-.03,0-.05,0h-.05s-.04,0-.05,0h-.06s-.05,0-.07,0h-.05s-.04,0-.05,0h-.05s-.04,0-.05,0h-.05s-.06,0-.09,0h-.04s-.04,0-.06,0h-.04s-.04,0-.05,0h-.05s-.07,0-.1,0h-.03s-.04,0-.07,0h-.03s-.04,0-.06,0h-.04s-.07,0-.11,0h-.03s-.04,0-.06,0c0,0-.02,0-.03,0h-.09s-.08,0-.13-.01h-.02s-.04,0-.06,0h-.09s-.02,0-.02,0c-.05,0-.1,0-.15-.01h-.1s-.05,0-.07,0h-.02c-.07,0-.15-.01-.23-.02h-.02s-.05,0-.07,0c0,0-.01,0-.02,0-.08,0-.15,0-.23-.01h-.02s-.05,0-.07,0h-.02l-.23-.02h-.01s-.05,0-.08,0c0,0,0,0,0,0-.08,0-.16,0-.24-.02-.03,0-.06,0-.08,0h0c-54.09-3.76-99.82-42.07-119.72-95.45,21.16,23.18,50.13,37.48,82.09,37.48,64.78,0,117.3-58.72,117.3-131.17,0-45.92-24.77-89.09-48.45-124.6-15.07-22.6-34.28-47.56-50.09-73.18,7.34-11.63,14.48-23.1,21.13-34.02.01-.02.03-.04.04-.06.03-.04.05-.08.07-.12,0,0,0-.01.01-.02.03-.06.06-.1.09-.16,0-.01.01-.02.02-.03.03-.05.06-.1.09-.15h0c.04-.06.07-.11.1-.17v-.02c.42-.67.83-1.35,1.23-2.02t.01-.02c.27-.44.54-.88.8-1.32,0-.01.01-.02.02-.03.13-.22.26-.44.39-.65,0,0,.01-.02.02-.03.06-.1.13-.2.19-.31l.02-.03s.06-.09.08-.14c0-.01.01-.02.02-.03.03-.04.06-.09.09-.14.01-.02.02-.04.03-.06.02-.04.05-.07.07-.1l.02-.03c.03-.05.06-.1.09-.15.01-.01.02-.02.02-.03.03-.05.05-.09.08-.13,0-.01.02-.02.02-.03.07-.1.13-.2.19-.31,0,0,.01-.02.02-.03.03-.05.06-.09.09-.14,0,0,0-.01,0-.02.07-.11.13-.21.19-.32,0,0,.01-.01.01-.02.07-.1.14-.21.2-.32s.13-.22.19-.32c0,0,.01-.02.02-.03.03-.05.06-.09.09-.15t0,0l.09-.16s.01-.01.01-.02c.03-.05.06-.09.09-.15,0,0,0,0,0-.01.03-.05.06-.1.09-.15.01-.02.02-.03.03-.04.03-.04.05-.08.07-.11.01-.02.02-.03.03-.04.06-.1.12-.2.18-.3,0-.01.01-.02.02-.03.03-.05.05-.09.08-.13l.02-.03c.06-.1.12-.2.18-.3,0-.01.02-.03.02-.04.03-.04.05-.09.08-.13.01-.02.02-.04.04-.06.02-.03.04-.06.06-.09.01-.03.03-.05.04-.07.02-.03.04-.07.06-.1.01-.02.02-.03.03-.05.03-.04.05-.09.08-.13.01-.02.02-.03.03-.04l.08-.14s0-.01.01-.01c.03-.05.06-.1.09-.15,0-.01.02-.03.02-.04.03-.04.05-.09.08-.13,0,0,0-.02.01-.02.03-.05.06-.1.09-.15,0-.01.02-.02.02-.03.03-.04.05-.08.07-.11.01-.02.02-.03.03-.05.03-.05.06-.1.08-.15,19.27,44.64,55.67,89.57,81.68,128.58,28.09,42.13,57.47,93.33,57.47,147.81,0,85.94-62.3,155.61-139.15,155.61"/>
    </g>
    <path class="cls-2" d="M236.1,302.22c-4.66-31.26,5.7-58.71,23.15-61.31s3.78,25.34,8.44,56.61c4.66,31.26,25.88,54.01,8.44,56.61-17.44,2.6-35.36-20.64-40.02-51.91"/>
    <path class="cls-2" d="M278.29,216c0-8.47-6.86-15.33-15.33-15.33s-15.33,6.86-15.33,15.33,6.86,15.33,15.33,15.33,15.33-6.86,15.33-15.33"/>
  </g>
</svg>